G04 MADE WITH FRITZING*
G04 WWW.FRITZING.ORG*
G04 DOUBLE SIDED*
G04 HOLES PLATED*
G04 CONTOUR ON CENTER OF CONTOUR VECTOR*
%ASAXBY*%
%FSLAX23Y23*%
%MOIN*%
%OFA0B0*%
%SFA1.0B1.0*%
%ADD10C,0.075000*%
%ADD11C,0.039370*%
%ADD12C,0.062992*%
%ADD13C,0.077778*%
%ADD14C,0.070866*%
%ADD15C,0.069444*%
%ADD16C,0.078000*%
%ADD17R,0.062992X0.062992*%
%ADD18R,0.078000X0.078000*%
%ADD19C,0.024000*%
%ADD20C,0.032000*%
%LNCOPPER0*%
G90*
G70*
G54D10*
X383Y1197D03*
X770Y1037D03*
G54D11*
X1371Y935D03*
G54D12*
X650Y1550D03*
X650Y1648D03*
X850Y1550D03*
X850Y1648D03*
G54D11*
X1300Y936D03*
X1225Y936D03*
X1150Y936D03*
X1075Y936D03*
G54D13*
X667Y1062D03*
X667Y962D03*
X667Y862D03*
X667Y762D03*
X667Y662D03*
X667Y562D03*
X667Y462D03*
X667Y362D03*
X1567Y362D03*
X1567Y462D03*
X1567Y562D03*
X1567Y662D03*
X1567Y762D03*
X1567Y862D03*
X1567Y962D03*
X1567Y1062D03*
G54D14*
X617Y1837D03*
X492Y1837D03*
G54D15*
X413Y1386D03*
X513Y1386D03*
X613Y1386D03*
G54D16*
X275Y1798D03*
X275Y1698D03*
X275Y1598D03*
X275Y1498D03*
X475Y486D03*
X475Y386D03*
X475Y286D03*
G54D11*
X950Y873D03*
G54D14*
X1192Y1837D03*
X1392Y1837D03*
X1388Y1598D03*
X1292Y1837D03*
X1092Y1837D03*
X892Y1836D03*
X992Y1837D03*
X792Y1837D03*
X1588Y1598D03*
X1492Y1837D03*
G54D10*
X275Y1173D03*
X675Y1173D03*
X888Y1023D03*
X888Y1423D03*
X1038Y1023D03*
X1038Y1423D03*
X438Y1748D03*
X838Y1748D03*
G54D11*
X1375Y661D03*
X1450Y848D03*
G54D17*
X650Y1550D03*
X850Y1550D03*
G54D18*
X275Y1798D03*
X475Y486D03*
G54D19*
X613Y1323D02*
X163Y1324D01*
D02*
X163Y1749D02*
X225Y1799D01*
D02*
X225Y1799D02*
X245Y1799D01*
D02*
X163Y1324D02*
X163Y1749D01*
D02*
X1226Y461D02*
X1538Y462D01*
D02*
X1375Y1248D02*
X1371Y954D01*
D02*
X613Y1248D02*
X1375Y1248D01*
D02*
X613Y1323D02*
X613Y1248D01*
D02*
X1357Y922D02*
X1226Y799D01*
D02*
X1226Y799D02*
X1226Y461D01*
D02*
X613Y1360D02*
X613Y1323D01*
D02*
X575Y1286D02*
X580Y962D01*
D02*
X580Y962D02*
X638Y962D01*
D02*
X125Y1286D02*
X575Y1286D01*
D02*
X125Y1786D02*
X125Y1286D01*
D02*
X229Y1874D02*
X125Y1786D01*
D02*
X455Y1874D02*
X229Y1874D01*
D02*
X473Y1856D02*
X455Y1874D01*
D02*
X1424Y1010D02*
X1547Y883D01*
D02*
X1425Y1298D02*
X1424Y1010D01*
D02*
X363Y1460D02*
X688Y1461D01*
D02*
X287Y1373D02*
X363Y1460D01*
D02*
X212Y1374D02*
X287Y1373D01*
D02*
X212Y1661D02*
X212Y1374D01*
D02*
X249Y1683D02*
X212Y1661D01*
D02*
X688Y1299D02*
X1425Y1298D01*
D02*
X688Y1461D02*
X688Y1299D01*
D02*
X1025Y761D02*
X696Y762D01*
D02*
X1025Y936D02*
X1025Y761D01*
D02*
X1056Y936D02*
X1025Y936D01*
D02*
X787Y660D02*
X690Y580D01*
D02*
X1126Y661D02*
X787Y660D01*
D02*
X1211Y923D02*
X1126Y849D01*
D02*
X1126Y849D02*
X1126Y661D01*
D02*
X725Y711D02*
X689Y681D01*
D02*
X1075Y711D02*
X725Y711D01*
D02*
X1136Y924D02*
X1075Y873D01*
D02*
X1075Y873D02*
X1075Y711D01*
D02*
X837Y610D02*
X689Y481D01*
D02*
X1176Y610D02*
X837Y610D01*
D02*
X1176Y823D02*
X1176Y610D01*
D02*
X1286Y923D02*
X1176Y823D01*
G54D20*
D02*
X760Y1837D02*
X649Y1837D01*
G54D19*
D02*
X738Y1124D02*
X698Y1156D01*
D02*
X962Y1124D02*
X738Y1124D01*
D02*
X955Y892D02*
X963Y923D01*
D02*
X1226Y286D02*
X564Y287D01*
D02*
X1226Y461D02*
X1226Y286D01*
D02*
X564Y437D02*
X502Y471D01*
D02*
X564Y287D02*
X564Y437D01*
D02*
X724Y1548D02*
X724Y1424D01*
D02*
X724Y1424D02*
X859Y1424D01*
D02*
X677Y1549D02*
X724Y1548D01*
D02*
X1326Y1748D02*
X866Y1748D01*
D02*
X1376Y1815D02*
X1326Y1748D01*
D02*
X1274Y699D02*
X1274Y562D01*
D02*
X1436Y836D02*
X1274Y699D01*
D02*
X1274Y562D02*
X1538Y562D01*
D02*
X1394Y661D02*
X1538Y662D01*
D02*
X963Y923D02*
X962Y1124D01*
G36*
X136Y1929D02*
X136Y1905D01*
X462Y1905D01*
X462Y1903D01*
X468Y1903D01*
X468Y1901D01*
X470Y1901D01*
X470Y1899D01*
X474Y1899D01*
X474Y1897D01*
X476Y1897D01*
X476Y1895D01*
X478Y1895D01*
X478Y1893D01*
X480Y1893D01*
X480Y1891D01*
X1500Y1891D01*
X1500Y1889D01*
X1508Y1889D01*
X1508Y1887D01*
X1514Y1887D01*
X1514Y1885D01*
X1518Y1885D01*
X1518Y1883D01*
X1522Y1883D01*
X1522Y1881D01*
X1524Y1881D01*
X1524Y1879D01*
X1526Y1879D01*
X1526Y1877D01*
X1528Y1877D01*
X1528Y1875D01*
X1530Y1875D01*
X1530Y1873D01*
X1532Y1873D01*
X1532Y1871D01*
X1534Y1871D01*
X1534Y1869D01*
X1536Y1869D01*
X1536Y1865D01*
X1538Y1865D01*
X1538Y1863D01*
X1540Y1863D01*
X1540Y1859D01*
X1542Y1859D01*
X1542Y1853D01*
X1544Y1853D01*
X1544Y1843D01*
X1546Y1843D01*
X1546Y1837D01*
X1656Y1837D01*
X1656Y1839D01*
X1646Y1839D01*
X1646Y1841D01*
X1640Y1841D01*
X1640Y1843D01*
X1636Y1843D01*
X1636Y1845D01*
X1632Y1845D01*
X1632Y1847D01*
X1628Y1847D01*
X1628Y1849D01*
X1626Y1849D01*
X1626Y1851D01*
X1624Y1851D01*
X1624Y1853D01*
X1622Y1853D01*
X1622Y1855D01*
X1618Y1855D01*
X1618Y1859D01*
X1616Y1859D01*
X1616Y1861D01*
X1614Y1861D01*
X1614Y1863D01*
X1612Y1863D01*
X1612Y1867D01*
X1610Y1867D01*
X1610Y1869D01*
X1608Y1869D01*
X1608Y1873D01*
X1606Y1873D01*
X1606Y1879D01*
X1604Y1879D01*
X1604Y1885D01*
X1602Y1885D01*
X1602Y1929D01*
X136Y1929D01*
G37*
D02*
G36*
X136Y1905D02*
X136Y1887D01*
X134Y1887D01*
X134Y1879D01*
X132Y1879D01*
X132Y1873D01*
X130Y1873D01*
X130Y1869D01*
X128Y1869D01*
X128Y1867D01*
X126Y1867D01*
X126Y1863D01*
X124Y1863D01*
X124Y1861D01*
X122Y1861D01*
X122Y1859D01*
X120Y1859D01*
X120Y1857D01*
X118Y1857D01*
X118Y1855D01*
X116Y1855D01*
X116Y1853D01*
X114Y1853D01*
X114Y1851D01*
X112Y1851D01*
X112Y1849D01*
X110Y1849D01*
X110Y1847D01*
X106Y1847D01*
X106Y1845D01*
X102Y1845D01*
X102Y1843D01*
X98Y1843D01*
X98Y1841D01*
X92Y1841D01*
X92Y1839D01*
X82Y1839D01*
X82Y1837D01*
X140Y1837D01*
X140Y1839D01*
X142Y1839D01*
X142Y1841D01*
X144Y1841D01*
X144Y1843D01*
X146Y1843D01*
X146Y1845D01*
X148Y1845D01*
X148Y1849D01*
X154Y1849D01*
X154Y1851D01*
X156Y1851D01*
X156Y1853D01*
X158Y1853D01*
X158Y1855D01*
X160Y1855D01*
X160Y1857D01*
X164Y1857D01*
X164Y1859D01*
X166Y1859D01*
X166Y1861D01*
X168Y1861D01*
X168Y1863D01*
X170Y1863D01*
X170Y1865D01*
X172Y1865D01*
X172Y1867D01*
X174Y1867D01*
X174Y1869D01*
X178Y1869D01*
X178Y1871D01*
X180Y1871D01*
X180Y1873D01*
X182Y1873D01*
X182Y1875D01*
X184Y1875D01*
X184Y1877D01*
X186Y1877D01*
X186Y1879D01*
X190Y1879D01*
X190Y1881D01*
X192Y1881D01*
X192Y1883D01*
X194Y1883D01*
X194Y1885D01*
X196Y1885D01*
X196Y1887D01*
X198Y1887D01*
X198Y1889D01*
X200Y1889D01*
X200Y1891D01*
X204Y1891D01*
X204Y1893D01*
X206Y1893D01*
X206Y1895D01*
X208Y1895D01*
X208Y1897D01*
X210Y1897D01*
X210Y1899D01*
X214Y1899D01*
X214Y1901D01*
X216Y1901D01*
X216Y1903D01*
X222Y1903D01*
X222Y1905D01*
X136Y1905D01*
G37*
D02*
G36*
X500Y1891D02*
X500Y1889D01*
X508Y1889D01*
X508Y1887D01*
X514Y1887D01*
X514Y1885D01*
X518Y1885D01*
X518Y1883D01*
X522Y1883D01*
X522Y1881D01*
X524Y1881D01*
X524Y1879D01*
X526Y1879D01*
X526Y1877D01*
X528Y1877D01*
X528Y1875D01*
X530Y1875D01*
X530Y1873D01*
X532Y1873D01*
X532Y1871D01*
X534Y1871D01*
X534Y1869D01*
X536Y1869D01*
X536Y1865D01*
X538Y1865D01*
X538Y1863D01*
X540Y1863D01*
X540Y1859D01*
X542Y1859D01*
X542Y1853D01*
X544Y1853D01*
X544Y1843D01*
X564Y1843D01*
X564Y1849D01*
X566Y1849D01*
X566Y1855D01*
X568Y1855D01*
X568Y1861D01*
X570Y1861D01*
X570Y1863D01*
X572Y1863D01*
X572Y1867D01*
X574Y1867D01*
X574Y1869D01*
X576Y1869D01*
X576Y1873D01*
X578Y1873D01*
X578Y1875D01*
X580Y1875D01*
X580Y1877D01*
X582Y1877D01*
X582Y1879D01*
X586Y1879D01*
X586Y1881D01*
X588Y1881D01*
X588Y1883D01*
X592Y1883D01*
X592Y1885D01*
X596Y1885D01*
X596Y1887D01*
X600Y1887D01*
X600Y1889D01*
X608Y1889D01*
X608Y1891D01*
X500Y1891D01*
G37*
D02*
G36*
X626Y1891D02*
X626Y1889D01*
X634Y1889D01*
X634Y1887D01*
X640Y1887D01*
X640Y1885D01*
X642Y1885D01*
X642Y1883D01*
X646Y1883D01*
X646Y1881D01*
X648Y1881D01*
X648Y1879D01*
X652Y1879D01*
X652Y1877D01*
X654Y1877D01*
X654Y1875D01*
X656Y1875D01*
X656Y1873D01*
X658Y1873D01*
X658Y1871D01*
X752Y1871D01*
X752Y1873D01*
X754Y1873D01*
X754Y1875D01*
X756Y1875D01*
X756Y1877D01*
X758Y1877D01*
X758Y1879D01*
X760Y1879D01*
X760Y1881D01*
X764Y1881D01*
X764Y1883D01*
X766Y1883D01*
X766Y1885D01*
X770Y1885D01*
X770Y1887D01*
X776Y1887D01*
X776Y1889D01*
X784Y1889D01*
X784Y1891D01*
X626Y1891D01*
G37*
D02*
G36*
X800Y1891D02*
X800Y1889D01*
X904Y1889D01*
X904Y1887D01*
X912Y1887D01*
X912Y1885D01*
X916Y1885D01*
X916Y1883D01*
X918Y1883D01*
X918Y1881D01*
X922Y1881D01*
X922Y1879D01*
X924Y1879D01*
X924Y1877D01*
X928Y1877D01*
X928Y1875D01*
X930Y1875D01*
X930Y1873D01*
X932Y1873D01*
X932Y1871D01*
X952Y1871D01*
X952Y1873D01*
X954Y1873D01*
X954Y1875D01*
X956Y1875D01*
X956Y1877D01*
X958Y1877D01*
X958Y1879D01*
X960Y1879D01*
X960Y1881D01*
X964Y1881D01*
X964Y1883D01*
X966Y1883D01*
X966Y1885D01*
X970Y1885D01*
X970Y1887D01*
X976Y1887D01*
X976Y1889D01*
X984Y1889D01*
X984Y1891D01*
X800Y1891D01*
G37*
D02*
G36*
X1000Y1891D02*
X1000Y1889D01*
X1008Y1889D01*
X1008Y1887D01*
X1014Y1887D01*
X1014Y1885D01*
X1018Y1885D01*
X1018Y1883D01*
X1022Y1883D01*
X1022Y1881D01*
X1024Y1881D01*
X1024Y1879D01*
X1026Y1879D01*
X1026Y1877D01*
X1028Y1877D01*
X1028Y1875D01*
X1030Y1875D01*
X1030Y1873D01*
X1032Y1873D01*
X1032Y1871D01*
X1052Y1871D01*
X1052Y1873D01*
X1054Y1873D01*
X1054Y1875D01*
X1056Y1875D01*
X1056Y1877D01*
X1058Y1877D01*
X1058Y1879D01*
X1060Y1879D01*
X1060Y1881D01*
X1064Y1881D01*
X1064Y1883D01*
X1066Y1883D01*
X1066Y1885D01*
X1070Y1885D01*
X1070Y1887D01*
X1076Y1887D01*
X1076Y1889D01*
X1084Y1889D01*
X1084Y1891D01*
X1000Y1891D01*
G37*
D02*
G36*
X1100Y1891D02*
X1100Y1889D01*
X1108Y1889D01*
X1108Y1887D01*
X1114Y1887D01*
X1114Y1885D01*
X1118Y1885D01*
X1118Y1883D01*
X1122Y1883D01*
X1122Y1881D01*
X1124Y1881D01*
X1124Y1879D01*
X1126Y1879D01*
X1126Y1877D01*
X1128Y1877D01*
X1128Y1875D01*
X1130Y1875D01*
X1130Y1873D01*
X1132Y1873D01*
X1132Y1871D01*
X1152Y1871D01*
X1152Y1873D01*
X1154Y1873D01*
X1154Y1875D01*
X1156Y1875D01*
X1156Y1877D01*
X1158Y1877D01*
X1158Y1879D01*
X1160Y1879D01*
X1160Y1881D01*
X1164Y1881D01*
X1164Y1883D01*
X1166Y1883D01*
X1166Y1885D01*
X1170Y1885D01*
X1170Y1887D01*
X1176Y1887D01*
X1176Y1889D01*
X1184Y1889D01*
X1184Y1891D01*
X1100Y1891D01*
G37*
D02*
G36*
X1200Y1891D02*
X1200Y1889D01*
X1208Y1889D01*
X1208Y1887D01*
X1214Y1887D01*
X1214Y1885D01*
X1218Y1885D01*
X1218Y1883D01*
X1222Y1883D01*
X1222Y1881D01*
X1224Y1881D01*
X1224Y1879D01*
X1226Y1879D01*
X1226Y1877D01*
X1228Y1877D01*
X1228Y1875D01*
X1230Y1875D01*
X1230Y1873D01*
X1232Y1873D01*
X1232Y1871D01*
X1252Y1871D01*
X1252Y1873D01*
X1254Y1873D01*
X1254Y1875D01*
X1256Y1875D01*
X1256Y1877D01*
X1258Y1877D01*
X1258Y1879D01*
X1260Y1879D01*
X1260Y1881D01*
X1264Y1881D01*
X1264Y1883D01*
X1266Y1883D01*
X1266Y1885D01*
X1270Y1885D01*
X1270Y1887D01*
X1276Y1887D01*
X1276Y1889D01*
X1284Y1889D01*
X1284Y1891D01*
X1200Y1891D01*
G37*
D02*
G36*
X1300Y1891D02*
X1300Y1889D01*
X1308Y1889D01*
X1308Y1887D01*
X1314Y1887D01*
X1314Y1885D01*
X1318Y1885D01*
X1318Y1883D01*
X1322Y1883D01*
X1322Y1881D01*
X1324Y1881D01*
X1324Y1879D01*
X1326Y1879D01*
X1326Y1877D01*
X1328Y1877D01*
X1328Y1875D01*
X1330Y1875D01*
X1330Y1873D01*
X1332Y1873D01*
X1332Y1871D01*
X1352Y1871D01*
X1352Y1873D01*
X1354Y1873D01*
X1354Y1875D01*
X1356Y1875D01*
X1356Y1877D01*
X1358Y1877D01*
X1358Y1879D01*
X1360Y1879D01*
X1360Y1881D01*
X1364Y1881D01*
X1364Y1883D01*
X1366Y1883D01*
X1366Y1885D01*
X1370Y1885D01*
X1370Y1887D01*
X1376Y1887D01*
X1376Y1889D01*
X1384Y1889D01*
X1384Y1891D01*
X1300Y1891D01*
G37*
D02*
G36*
X1400Y1891D02*
X1400Y1889D01*
X1408Y1889D01*
X1408Y1887D01*
X1414Y1887D01*
X1414Y1885D01*
X1418Y1885D01*
X1418Y1883D01*
X1422Y1883D01*
X1422Y1881D01*
X1424Y1881D01*
X1424Y1879D01*
X1426Y1879D01*
X1426Y1877D01*
X1428Y1877D01*
X1428Y1875D01*
X1430Y1875D01*
X1430Y1873D01*
X1432Y1873D01*
X1432Y1871D01*
X1452Y1871D01*
X1452Y1873D01*
X1454Y1873D01*
X1454Y1875D01*
X1456Y1875D01*
X1456Y1877D01*
X1458Y1877D01*
X1458Y1879D01*
X1460Y1879D01*
X1460Y1881D01*
X1464Y1881D01*
X1464Y1883D01*
X1466Y1883D01*
X1466Y1885D01*
X1470Y1885D01*
X1470Y1887D01*
X1476Y1887D01*
X1476Y1889D01*
X1484Y1889D01*
X1484Y1891D01*
X1400Y1891D01*
G37*
D02*
G36*
X808Y1889D02*
X808Y1887D01*
X814Y1887D01*
X814Y1885D01*
X818Y1885D01*
X818Y1883D01*
X822Y1883D01*
X822Y1881D01*
X824Y1881D01*
X824Y1879D01*
X826Y1879D01*
X826Y1877D01*
X828Y1877D01*
X828Y1875D01*
X830Y1875D01*
X830Y1873D01*
X832Y1873D01*
X832Y1871D01*
X852Y1871D01*
X852Y1873D01*
X854Y1873D01*
X854Y1875D01*
X856Y1875D01*
X856Y1877D01*
X858Y1877D01*
X858Y1879D01*
X860Y1879D01*
X860Y1881D01*
X864Y1881D01*
X864Y1883D01*
X868Y1883D01*
X868Y1885D01*
X872Y1885D01*
X872Y1887D01*
X878Y1887D01*
X878Y1889D01*
X808Y1889D01*
G37*
D02*
G36*
X334Y1845D02*
X334Y1693D01*
X432Y1693D01*
X432Y1695D01*
X422Y1695D01*
X422Y1697D01*
X416Y1697D01*
X416Y1699D01*
X412Y1699D01*
X412Y1701D01*
X408Y1701D01*
X408Y1703D01*
X406Y1703D01*
X406Y1705D01*
X404Y1705D01*
X404Y1707D01*
X400Y1707D01*
X400Y1709D01*
X398Y1709D01*
X398Y1711D01*
X396Y1711D01*
X396Y1713D01*
X394Y1713D01*
X394Y1717D01*
X392Y1717D01*
X392Y1719D01*
X390Y1719D01*
X390Y1723D01*
X388Y1723D01*
X388Y1727D01*
X386Y1727D01*
X386Y1731D01*
X384Y1731D01*
X384Y1741D01*
X382Y1741D01*
X382Y1757D01*
X384Y1757D01*
X384Y1767D01*
X386Y1767D01*
X386Y1771D01*
X388Y1771D01*
X388Y1775D01*
X390Y1775D01*
X390Y1779D01*
X392Y1779D01*
X392Y1781D01*
X394Y1781D01*
X394Y1783D01*
X396Y1783D01*
X396Y1787D01*
X398Y1787D01*
X398Y1789D01*
X400Y1789D01*
X400Y1791D01*
X404Y1791D01*
X404Y1793D01*
X406Y1793D01*
X406Y1795D01*
X408Y1795D01*
X408Y1797D01*
X412Y1797D01*
X412Y1799D01*
X416Y1799D01*
X416Y1801D01*
X422Y1801D01*
X422Y1803D01*
X432Y1803D01*
X432Y1805D01*
X440Y1805D01*
X440Y1833D01*
X438Y1833D01*
X438Y1845D01*
X334Y1845D01*
G37*
D02*
G36*
X40Y1839D02*
X40Y1837D01*
X70Y1837D01*
X70Y1839D01*
X40Y1839D01*
G37*
D02*
G36*
X1668Y1839D02*
X1668Y1837D01*
X1692Y1837D01*
X1692Y1839D01*
X1668Y1839D01*
G37*
D02*
G36*
X40Y1837D02*
X40Y1835D01*
X138Y1835D01*
X138Y1837D01*
X40Y1837D01*
G37*
D02*
G36*
X40Y1837D02*
X40Y1835D01*
X138Y1835D01*
X138Y1837D01*
X40Y1837D01*
G37*
D02*
G36*
X1546Y1837D02*
X1546Y1835D01*
X1692Y1835D01*
X1692Y1837D01*
X1546Y1837D01*
G37*
D02*
G36*
X1546Y1837D02*
X1546Y1835D01*
X1692Y1835D01*
X1692Y1837D01*
X1546Y1837D01*
G37*
D02*
G36*
X40Y1835D02*
X40Y1229D01*
X288Y1229D01*
X288Y1227D01*
X294Y1227D01*
X294Y1225D01*
X298Y1225D01*
X298Y1223D01*
X302Y1223D01*
X302Y1221D01*
X306Y1221D01*
X306Y1219D01*
X308Y1219D01*
X308Y1217D01*
X310Y1217D01*
X310Y1215D01*
X314Y1215D01*
X314Y1213D01*
X316Y1213D01*
X316Y1209D01*
X318Y1209D01*
X318Y1207D01*
X320Y1207D01*
X320Y1205D01*
X322Y1205D01*
X322Y1201D01*
X324Y1201D01*
X324Y1197D01*
X326Y1197D01*
X326Y1193D01*
X328Y1193D01*
X328Y1187D01*
X330Y1187D01*
X330Y1161D01*
X328Y1161D01*
X328Y1155D01*
X326Y1155D01*
X326Y1151D01*
X324Y1151D01*
X324Y1147D01*
X322Y1147D01*
X322Y1143D01*
X320Y1143D01*
X320Y1141D01*
X318Y1141D01*
X318Y1137D01*
X316Y1137D01*
X316Y1135D01*
X314Y1135D01*
X314Y1133D01*
X312Y1133D01*
X312Y1131D01*
X308Y1131D01*
X308Y1129D01*
X306Y1129D01*
X306Y1127D01*
X302Y1127D01*
X302Y1125D01*
X298Y1125D01*
X298Y1123D01*
X294Y1123D01*
X294Y1121D01*
X288Y1121D01*
X288Y1119D01*
X548Y1119D01*
X548Y1163D01*
X546Y1163D01*
X546Y1257D01*
X116Y1257D01*
X116Y1259D01*
X112Y1259D01*
X112Y1261D01*
X108Y1261D01*
X108Y1263D01*
X106Y1263D01*
X106Y1265D01*
X104Y1265D01*
X104Y1267D01*
X102Y1267D01*
X102Y1269D01*
X100Y1269D01*
X100Y1271D01*
X98Y1271D01*
X98Y1277D01*
X96Y1277D01*
X96Y1797D01*
X98Y1797D01*
X98Y1801D01*
X100Y1801D01*
X100Y1803D01*
X102Y1803D01*
X102Y1807D01*
X104Y1807D01*
X104Y1809D01*
X106Y1809D01*
X106Y1811D01*
X110Y1811D01*
X110Y1813D01*
X112Y1813D01*
X112Y1815D01*
X114Y1815D01*
X114Y1817D01*
X116Y1817D01*
X116Y1819D01*
X118Y1819D01*
X118Y1821D01*
X120Y1821D01*
X120Y1823D01*
X124Y1823D01*
X124Y1825D01*
X126Y1825D01*
X126Y1827D01*
X128Y1827D01*
X128Y1829D01*
X130Y1829D01*
X130Y1831D01*
X132Y1831D01*
X132Y1833D01*
X134Y1833D01*
X134Y1835D01*
X40Y1835D01*
G37*
D02*
G36*
X1546Y1835D02*
X1546Y1831D01*
X1544Y1831D01*
X1544Y1821D01*
X1542Y1821D01*
X1542Y1817D01*
X1540Y1817D01*
X1540Y1813D01*
X1538Y1813D01*
X1538Y1809D01*
X1536Y1809D01*
X1536Y1807D01*
X1534Y1807D01*
X1534Y1803D01*
X1532Y1803D01*
X1532Y1801D01*
X1530Y1801D01*
X1530Y1799D01*
X1528Y1799D01*
X1528Y1797D01*
X1526Y1797D01*
X1526Y1795D01*
X1522Y1795D01*
X1522Y1793D01*
X1520Y1793D01*
X1520Y1791D01*
X1516Y1791D01*
X1516Y1789D01*
X1512Y1789D01*
X1512Y1787D01*
X1506Y1787D01*
X1506Y1785D01*
X1692Y1785D01*
X1692Y1835D01*
X1546Y1835D01*
G37*
D02*
G36*
X544Y1831D02*
X544Y1821D01*
X542Y1821D01*
X542Y1817D01*
X540Y1817D01*
X540Y1813D01*
X538Y1813D01*
X538Y1809D01*
X536Y1809D01*
X536Y1807D01*
X534Y1807D01*
X534Y1803D01*
X532Y1803D01*
X532Y1801D01*
X530Y1801D01*
X530Y1799D01*
X528Y1799D01*
X528Y1797D01*
X526Y1797D01*
X526Y1795D01*
X522Y1795D01*
X522Y1793D01*
X520Y1793D01*
X520Y1791D01*
X516Y1791D01*
X516Y1789D01*
X512Y1789D01*
X512Y1787D01*
X506Y1787D01*
X506Y1785D01*
X490Y1785D01*
X490Y1783D01*
X616Y1783D01*
X616Y1785D01*
X604Y1785D01*
X604Y1787D01*
X596Y1787D01*
X596Y1789D01*
X592Y1789D01*
X592Y1791D01*
X590Y1791D01*
X590Y1793D01*
X586Y1793D01*
X586Y1795D01*
X584Y1795D01*
X584Y1797D01*
X582Y1797D01*
X582Y1799D01*
X578Y1799D01*
X578Y1803D01*
X576Y1803D01*
X576Y1805D01*
X574Y1805D01*
X574Y1807D01*
X572Y1807D01*
X572Y1811D01*
X570Y1811D01*
X570Y1815D01*
X568Y1815D01*
X568Y1819D01*
X566Y1819D01*
X566Y1827D01*
X564Y1827D01*
X564Y1831D01*
X544Y1831D01*
G37*
D02*
G36*
X656Y1803D02*
X656Y1799D01*
X652Y1799D01*
X652Y1797D01*
X650Y1797D01*
X650Y1795D01*
X648Y1795D01*
X648Y1793D01*
X644Y1793D01*
X644Y1791D01*
X642Y1791D01*
X642Y1789D01*
X638Y1789D01*
X638Y1787D01*
X632Y1787D01*
X632Y1785D01*
X618Y1785D01*
X618Y1783D01*
X784Y1783D01*
X784Y1785D01*
X778Y1785D01*
X778Y1787D01*
X772Y1787D01*
X772Y1789D01*
X768Y1789D01*
X768Y1791D01*
X764Y1791D01*
X764Y1793D01*
X762Y1793D01*
X762Y1795D01*
X758Y1795D01*
X758Y1797D01*
X756Y1797D01*
X756Y1799D01*
X754Y1799D01*
X754Y1801D01*
X752Y1801D01*
X752Y1803D01*
X656Y1803D01*
G37*
D02*
G36*
X932Y1803D02*
X932Y1801D01*
X930Y1801D01*
X930Y1799D01*
X928Y1799D01*
X928Y1797D01*
X926Y1797D01*
X926Y1795D01*
X924Y1795D01*
X924Y1793D01*
X920Y1793D01*
X920Y1791D01*
X918Y1791D01*
X918Y1789D01*
X914Y1789D01*
X914Y1787D01*
X908Y1787D01*
X908Y1785D01*
X978Y1785D01*
X978Y1787D01*
X972Y1787D01*
X972Y1789D01*
X968Y1789D01*
X968Y1791D01*
X964Y1791D01*
X964Y1793D01*
X962Y1793D01*
X962Y1795D01*
X958Y1795D01*
X958Y1797D01*
X956Y1797D01*
X956Y1799D01*
X954Y1799D01*
X954Y1801D01*
X952Y1801D01*
X952Y1803D01*
X932Y1803D01*
G37*
D02*
G36*
X1032Y1803D02*
X1032Y1801D01*
X1030Y1801D01*
X1030Y1799D01*
X1028Y1799D01*
X1028Y1797D01*
X1026Y1797D01*
X1026Y1795D01*
X1022Y1795D01*
X1022Y1793D01*
X1020Y1793D01*
X1020Y1791D01*
X1016Y1791D01*
X1016Y1789D01*
X1012Y1789D01*
X1012Y1787D01*
X1006Y1787D01*
X1006Y1785D01*
X1078Y1785D01*
X1078Y1787D01*
X1072Y1787D01*
X1072Y1789D01*
X1068Y1789D01*
X1068Y1791D01*
X1064Y1791D01*
X1064Y1793D01*
X1062Y1793D01*
X1062Y1795D01*
X1058Y1795D01*
X1058Y1797D01*
X1056Y1797D01*
X1056Y1799D01*
X1054Y1799D01*
X1054Y1801D01*
X1052Y1801D01*
X1052Y1803D01*
X1032Y1803D01*
G37*
D02*
G36*
X1132Y1803D02*
X1132Y1801D01*
X1130Y1801D01*
X1130Y1799D01*
X1128Y1799D01*
X1128Y1797D01*
X1126Y1797D01*
X1126Y1795D01*
X1122Y1795D01*
X1122Y1793D01*
X1120Y1793D01*
X1120Y1791D01*
X1116Y1791D01*
X1116Y1789D01*
X1112Y1789D01*
X1112Y1787D01*
X1106Y1787D01*
X1106Y1785D01*
X1178Y1785D01*
X1178Y1787D01*
X1172Y1787D01*
X1172Y1789D01*
X1168Y1789D01*
X1168Y1791D01*
X1164Y1791D01*
X1164Y1793D01*
X1162Y1793D01*
X1162Y1795D01*
X1158Y1795D01*
X1158Y1797D01*
X1156Y1797D01*
X1156Y1799D01*
X1154Y1799D01*
X1154Y1801D01*
X1152Y1801D01*
X1152Y1803D01*
X1132Y1803D01*
G37*
D02*
G36*
X1232Y1803D02*
X1232Y1801D01*
X1230Y1801D01*
X1230Y1799D01*
X1228Y1799D01*
X1228Y1797D01*
X1226Y1797D01*
X1226Y1795D01*
X1222Y1795D01*
X1222Y1793D01*
X1220Y1793D01*
X1220Y1791D01*
X1216Y1791D01*
X1216Y1789D01*
X1212Y1789D01*
X1212Y1787D01*
X1206Y1787D01*
X1206Y1785D01*
X1278Y1785D01*
X1278Y1787D01*
X1272Y1787D01*
X1272Y1789D01*
X1268Y1789D01*
X1268Y1791D01*
X1264Y1791D01*
X1264Y1793D01*
X1262Y1793D01*
X1262Y1795D01*
X1258Y1795D01*
X1258Y1797D01*
X1256Y1797D01*
X1256Y1799D01*
X1254Y1799D01*
X1254Y1801D01*
X1252Y1801D01*
X1252Y1803D01*
X1232Y1803D01*
G37*
D02*
G36*
X1332Y1803D02*
X1332Y1801D01*
X1330Y1801D01*
X1330Y1799D01*
X1328Y1799D01*
X1328Y1797D01*
X1326Y1797D01*
X1326Y1795D01*
X1322Y1795D01*
X1322Y1793D01*
X1320Y1793D01*
X1320Y1791D01*
X1316Y1791D01*
X1316Y1789D01*
X1312Y1789D01*
X1312Y1787D01*
X1306Y1787D01*
X1306Y1785D01*
X1378Y1785D01*
X1378Y1787D01*
X1372Y1787D01*
X1372Y1789D01*
X1368Y1789D01*
X1368Y1791D01*
X1364Y1791D01*
X1364Y1793D01*
X1362Y1793D01*
X1362Y1795D01*
X1358Y1795D01*
X1358Y1797D01*
X1356Y1797D01*
X1356Y1799D01*
X1354Y1799D01*
X1354Y1801D01*
X1352Y1801D01*
X1352Y1803D01*
X1332Y1803D01*
G37*
D02*
G36*
X1432Y1803D02*
X1432Y1801D01*
X1430Y1801D01*
X1430Y1799D01*
X1428Y1799D01*
X1428Y1797D01*
X1426Y1797D01*
X1426Y1795D01*
X1422Y1795D01*
X1422Y1793D01*
X1420Y1793D01*
X1420Y1791D01*
X1416Y1791D01*
X1416Y1789D01*
X1412Y1789D01*
X1412Y1787D01*
X1406Y1787D01*
X1406Y1785D01*
X1478Y1785D01*
X1478Y1787D01*
X1472Y1787D01*
X1472Y1789D01*
X1468Y1789D01*
X1468Y1791D01*
X1464Y1791D01*
X1464Y1793D01*
X1462Y1793D01*
X1462Y1795D01*
X1458Y1795D01*
X1458Y1797D01*
X1456Y1797D01*
X1456Y1799D01*
X1454Y1799D01*
X1454Y1801D01*
X1452Y1801D01*
X1452Y1803D01*
X1432Y1803D01*
G37*
D02*
G36*
X900Y1785D02*
X900Y1783D01*
X1692Y1783D01*
X1692Y1785D01*
X900Y1785D01*
G37*
D02*
G36*
X900Y1785D02*
X900Y1783D01*
X1692Y1783D01*
X1692Y1785D01*
X900Y1785D01*
G37*
D02*
G36*
X900Y1785D02*
X900Y1783D01*
X1692Y1783D01*
X1692Y1785D01*
X900Y1785D01*
G37*
D02*
G36*
X900Y1785D02*
X900Y1783D01*
X1692Y1783D01*
X1692Y1785D01*
X900Y1785D01*
G37*
D02*
G36*
X900Y1785D02*
X900Y1783D01*
X1692Y1783D01*
X1692Y1785D01*
X900Y1785D01*
G37*
D02*
G36*
X900Y1785D02*
X900Y1783D01*
X1692Y1783D01*
X1692Y1785D01*
X900Y1785D01*
G37*
D02*
G36*
X900Y1785D02*
X900Y1783D01*
X1692Y1783D01*
X1692Y1785D01*
X900Y1785D01*
G37*
D02*
G36*
X490Y1783D02*
X490Y1781D01*
X784Y1781D01*
X784Y1783D01*
X490Y1783D01*
G37*
D02*
G36*
X490Y1783D02*
X490Y1781D01*
X784Y1781D01*
X784Y1783D01*
X490Y1783D01*
G37*
D02*
G36*
X890Y1783D02*
X890Y1763D01*
X892Y1763D01*
X892Y1751D01*
X894Y1751D01*
X894Y1747D01*
X892Y1747D01*
X892Y1735D01*
X890Y1735D01*
X890Y1727D01*
X888Y1727D01*
X888Y1725D01*
X886Y1725D01*
X886Y1721D01*
X884Y1721D01*
X884Y1717D01*
X882Y1717D01*
X882Y1715D01*
X880Y1715D01*
X880Y1713D01*
X878Y1713D01*
X878Y1689D01*
X880Y1689D01*
X880Y1687D01*
X882Y1687D01*
X882Y1685D01*
X886Y1685D01*
X886Y1681D01*
X888Y1681D01*
X888Y1679D01*
X890Y1679D01*
X890Y1677D01*
X892Y1677D01*
X892Y1673D01*
X894Y1673D01*
X894Y1669D01*
X896Y1669D01*
X896Y1665D01*
X898Y1665D01*
X898Y1655D01*
X900Y1655D01*
X900Y1653D01*
X1594Y1653D01*
X1594Y1651D01*
X1604Y1651D01*
X1604Y1649D01*
X1608Y1649D01*
X1608Y1647D01*
X1612Y1647D01*
X1612Y1645D01*
X1616Y1645D01*
X1616Y1643D01*
X1618Y1643D01*
X1618Y1641D01*
X1622Y1641D01*
X1622Y1639D01*
X1624Y1639D01*
X1624Y1637D01*
X1626Y1637D01*
X1626Y1635D01*
X1628Y1635D01*
X1628Y1633D01*
X1630Y1633D01*
X1630Y1629D01*
X1632Y1629D01*
X1632Y1627D01*
X1634Y1627D01*
X1634Y1623D01*
X1636Y1623D01*
X1636Y1619D01*
X1638Y1619D01*
X1638Y1613D01*
X1640Y1613D01*
X1640Y1601D01*
X1642Y1601D01*
X1642Y1597D01*
X1640Y1597D01*
X1640Y1585D01*
X1638Y1585D01*
X1638Y1579D01*
X1636Y1579D01*
X1636Y1575D01*
X1634Y1575D01*
X1634Y1571D01*
X1632Y1571D01*
X1632Y1569D01*
X1630Y1569D01*
X1630Y1565D01*
X1628Y1565D01*
X1628Y1563D01*
X1626Y1563D01*
X1626Y1561D01*
X1624Y1561D01*
X1624Y1559D01*
X1622Y1559D01*
X1622Y1557D01*
X1620Y1557D01*
X1620Y1555D01*
X1616Y1555D01*
X1616Y1553D01*
X1612Y1553D01*
X1612Y1551D01*
X1608Y1551D01*
X1608Y1549D01*
X1604Y1549D01*
X1604Y1547D01*
X1594Y1547D01*
X1594Y1545D01*
X1692Y1545D01*
X1692Y1783D01*
X890Y1783D01*
G37*
D02*
G36*
X490Y1781D02*
X490Y1763D01*
X492Y1763D01*
X492Y1751D01*
X494Y1751D01*
X494Y1747D01*
X492Y1747D01*
X492Y1735D01*
X490Y1735D01*
X490Y1727D01*
X488Y1727D01*
X488Y1725D01*
X486Y1725D01*
X486Y1721D01*
X484Y1721D01*
X484Y1717D01*
X482Y1717D01*
X482Y1715D01*
X480Y1715D01*
X480Y1713D01*
X478Y1713D01*
X478Y1709D01*
X474Y1709D01*
X474Y1707D01*
X472Y1707D01*
X472Y1705D01*
X470Y1705D01*
X470Y1703D01*
X466Y1703D01*
X466Y1701D01*
X464Y1701D01*
X464Y1699D01*
X656Y1699D01*
X656Y1697D01*
X664Y1697D01*
X664Y1695D01*
X670Y1695D01*
X670Y1693D01*
X674Y1693D01*
X674Y1691D01*
X678Y1691D01*
X678Y1689D01*
X680Y1689D01*
X680Y1687D01*
X682Y1687D01*
X682Y1685D01*
X686Y1685D01*
X686Y1681D01*
X688Y1681D01*
X688Y1679D01*
X690Y1679D01*
X690Y1677D01*
X692Y1677D01*
X692Y1673D01*
X694Y1673D01*
X694Y1669D01*
X696Y1669D01*
X696Y1665D01*
X698Y1665D01*
X698Y1655D01*
X700Y1655D01*
X700Y1643D01*
X698Y1643D01*
X698Y1633D01*
X696Y1633D01*
X696Y1629D01*
X694Y1629D01*
X694Y1625D01*
X692Y1625D01*
X692Y1621D01*
X690Y1621D01*
X690Y1601D01*
X698Y1601D01*
X698Y1599D01*
X700Y1599D01*
X700Y1579D01*
X730Y1579D01*
X730Y1577D01*
X736Y1577D01*
X736Y1575D01*
X740Y1575D01*
X740Y1573D01*
X744Y1573D01*
X744Y1571D01*
X746Y1571D01*
X746Y1569D01*
X748Y1569D01*
X748Y1565D01*
X750Y1565D01*
X750Y1563D01*
X752Y1563D01*
X752Y1557D01*
X754Y1557D01*
X754Y1501D01*
X800Y1501D01*
X800Y1599D01*
X802Y1599D01*
X802Y1601D01*
X810Y1601D01*
X810Y1621D01*
X808Y1621D01*
X808Y1625D01*
X806Y1625D01*
X806Y1629D01*
X804Y1629D01*
X804Y1635D01*
X802Y1635D01*
X802Y1645D01*
X800Y1645D01*
X800Y1653D01*
X802Y1653D01*
X802Y1663D01*
X804Y1663D01*
X804Y1669D01*
X806Y1669D01*
X806Y1673D01*
X808Y1673D01*
X808Y1677D01*
X810Y1677D01*
X810Y1679D01*
X812Y1679D01*
X812Y1701D01*
X808Y1701D01*
X808Y1703D01*
X806Y1703D01*
X806Y1705D01*
X804Y1705D01*
X804Y1707D01*
X800Y1707D01*
X800Y1709D01*
X798Y1709D01*
X798Y1711D01*
X796Y1711D01*
X796Y1713D01*
X794Y1713D01*
X794Y1717D01*
X792Y1717D01*
X792Y1719D01*
X790Y1719D01*
X790Y1723D01*
X788Y1723D01*
X788Y1727D01*
X786Y1727D01*
X786Y1731D01*
X784Y1731D01*
X784Y1741D01*
X782Y1741D01*
X782Y1757D01*
X784Y1757D01*
X784Y1781D01*
X490Y1781D01*
G37*
D02*
G36*
X460Y1699D02*
X460Y1697D01*
X454Y1697D01*
X454Y1695D01*
X444Y1695D01*
X444Y1693D01*
X630Y1693D01*
X630Y1695D01*
X636Y1695D01*
X636Y1697D01*
X644Y1697D01*
X644Y1699D01*
X460Y1699D01*
G37*
D02*
G36*
X334Y1693D02*
X334Y1691D01*
X626Y1691D01*
X626Y1693D01*
X334Y1693D01*
G37*
D02*
G36*
X334Y1693D02*
X334Y1691D01*
X626Y1691D01*
X626Y1693D01*
X334Y1693D01*
G37*
D02*
G36*
X334Y1691D02*
X334Y1489D01*
X358Y1489D01*
X358Y1491D01*
X600Y1491D01*
X600Y1599D01*
X602Y1599D01*
X602Y1601D01*
X610Y1601D01*
X610Y1621D01*
X608Y1621D01*
X608Y1625D01*
X606Y1625D01*
X606Y1629D01*
X604Y1629D01*
X604Y1635D01*
X602Y1635D01*
X602Y1645D01*
X600Y1645D01*
X600Y1653D01*
X602Y1653D01*
X602Y1663D01*
X604Y1663D01*
X604Y1669D01*
X606Y1669D01*
X606Y1673D01*
X608Y1673D01*
X608Y1677D01*
X610Y1677D01*
X610Y1679D01*
X612Y1679D01*
X612Y1681D01*
X614Y1681D01*
X614Y1683D01*
X616Y1683D01*
X616Y1685D01*
X618Y1685D01*
X618Y1687D01*
X620Y1687D01*
X620Y1689D01*
X622Y1689D01*
X622Y1691D01*
X334Y1691D01*
G37*
D02*
G36*
X900Y1653D02*
X900Y1643D01*
X898Y1643D01*
X898Y1633D01*
X896Y1633D01*
X896Y1629D01*
X894Y1629D01*
X894Y1625D01*
X892Y1625D01*
X892Y1621D01*
X890Y1621D01*
X890Y1601D01*
X898Y1601D01*
X898Y1599D01*
X900Y1599D01*
X900Y1545D01*
X1382Y1545D01*
X1382Y1547D01*
X1372Y1547D01*
X1372Y1549D01*
X1366Y1549D01*
X1366Y1551D01*
X1362Y1551D01*
X1362Y1553D01*
X1360Y1553D01*
X1360Y1555D01*
X1356Y1555D01*
X1356Y1557D01*
X1354Y1557D01*
X1354Y1559D01*
X1352Y1559D01*
X1352Y1561D01*
X1350Y1561D01*
X1350Y1563D01*
X1348Y1563D01*
X1348Y1565D01*
X1346Y1565D01*
X1346Y1567D01*
X1344Y1567D01*
X1344Y1569D01*
X1342Y1569D01*
X1342Y1573D01*
X1340Y1573D01*
X1340Y1577D01*
X1338Y1577D01*
X1338Y1583D01*
X1336Y1583D01*
X1336Y1591D01*
X1334Y1591D01*
X1334Y1607D01*
X1336Y1607D01*
X1336Y1615D01*
X1338Y1615D01*
X1338Y1621D01*
X1340Y1621D01*
X1340Y1625D01*
X1342Y1625D01*
X1342Y1627D01*
X1344Y1627D01*
X1344Y1631D01*
X1346Y1631D01*
X1346Y1633D01*
X1348Y1633D01*
X1348Y1635D01*
X1350Y1635D01*
X1350Y1637D01*
X1352Y1637D01*
X1352Y1639D01*
X1354Y1639D01*
X1354Y1641D01*
X1356Y1641D01*
X1356Y1643D01*
X1360Y1643D01*
X1360Y1645D01*
X1362Y1645D01*
X1362Y1647D01*
X1366Y1647D01*
X1366Y1649D01*
X1372Y1649D01*
X1372Y1651D01*
X1382Y1651D01*
X1382Y1653D01*
X900Y1653D01*
G37*
D02*
G36*
X1394Y1653D02*
X1394Y1651D01*
X1404Y1651D01*
X1404Y1649D01*
X1408Y1649D01*
X1408Y1647D01*
X1412Y1647D01*
X1412Y1645D01*
X1416Y1645D01*
X1416Y1643D01*
X1418Y1643D01*
X1418Y1641D01*
X1422Y1641D01*
X1422Y1639D01*
X1424Y1639D01*
X1424Y1637D01*
X1426Y1637D01*
X1426Y1635D01*
X1428Y1635D01*
X1428Y1633D01*
X1430Y1633D01*
X1430Y1629D01*
X1432Y1629D01*
X1432Y1627D01*
X1434Y1627D01*
X1434Y1623D01*
X1436Y1623D01*
X1436Y1619D01*
X1438Y1619D01*
X1438Y1613D01*
X1440Y1613D01*
X1440Y1601D01*
X1442Y1601D01*
X1442Y1597D01*
X1440Y1597D01*
X1440Y1585D01*
X1438Y1585D01*
X1438Y1579D01*
X1436Y1579D01*
X1436Y1575D01*
X1434Y1575D01*
X1434Y1571D01*
X1432Y1571D01*
X1432Y1569D01*
X1430Y1569D01*
X1430Y1565D01*
X1428Y1565D01*
X1428Y1563D01*
X1426Y1563D01*
X1426Y1561D01*
X1424Y1561D01*
X1424Y1559D01*
X1422Y1559D01*
X1422Y1557D01*
X1418Y1557D01*
X1418Y1555D01*
X1416Y1555D01*
X1416Y1553D01*
X1412Y1553D01*
X1412Y1551D01*
X1408Y1551D01*
X1408Y1549D01*
X1404Y1549D01*
X1404Y1547D01*
X1394Y1547D01*
X1394Y1545D01*
X1582Y1545D01*
X1582Y1547D01*
X1572Y1547D01*
X1572Y1549D01*
X1566Y1549D01*
X1566Y1551D01*
X1562Y1551D01*
X1562Y1553D01*
X1560Y1553D01*
X1560Y1555D01*
X1556Y1555D01*
X1556Y1557D01*
X1554Y1557D01*
X1554Y1559D01*
X1552Y1559D01*
X1552Y1561D01*
X1550Y1561D01*
X1550Y1563D01*
X1548Y1563D01*
X1548Y1565D01*
X1546Y1565D01*
X1546Y1567D01*
X1544Y1567D01*
X1544Y1569D01*
X1542Y1569D01*
X1542Y1573D01*
X1540Y1573D01*
X1540Y1577D01*
X1538Y1577D01*
X1538Y1583D01*
X1536Y1583D01*
X1536Y1591D01*
X1534Y1591D01*
X1534Y1607D01*
X1536Y1607D01*
X1536Y1615D01*
X1538Y1615D01*
X1538Y1621D01*
X1540Y1621D01*
X1540Y1625D01*
X1542Y1625D01*
X1542Y1627D01*
X1544Y1627D01*
X1544Y1631D01*
X1546Y1631D01*
X1546Y1633D01*
X1548Y1633D01*
X1548Y1635D01*
X1550Y1635D01*
X1550Y1637D01*
X1552Y1637D01*
X1552Y1639D01*
X1554Y1639D01*
X1554Y1641D01*
X1556Y1641D01*
X1556Y1643D01*
X1560Y1643D01*
X1560Y1645D01*
X1562Y1645D01*
X1562Y1647D01*
X1566Y1647D01*
X1566Y1649D01*
X1572Y1649D01*
X1572Y1651D01*
X1582Y1651D01*
X1582Y1653D01*
X1394Y1653D01*
G37*
D02*
G36*
X900Y1545D02*
X900Y1543D01*
X1692Y1543D01*
X1692Y1545D01*
X900Y1545D01*
G37*
D02*
G36*
X900Y1545D02*
X900Y1543D01*
X1692Y1543D01*
X1692Y1545D01*
X900Y1545D01*
G37*
D02*
G36*
X900Y1545D02*
X900Y1543D01*
X1692Y1543D01*
X1692Y1545D01*
X900Y1545D01*
G37*
D02*
G36*
X900Y1543D02*
X900Y1501D01*
X1692Y1501D01*
X1692Y1543D01*
X900Y1543D01*
G37*
D02*
G36*
X754Y1501D02*
X754Y1499D01*
X1692Y1499D01*
X1692Y1501D01*
X754Y1501D01*
G37*
D02*
G36*
X754Y1501D02*
X754Y1499D01*
X1692Y1499D01*
X1692Y1501D01*
X754Y1501D01*
G37*
D02*
G36*
X754Y1499D02*
X754Y1479D01*
X1050Y1479D01*
X1050Y1477D01*
X1056Y1477D01*
X1056Y1475D01*
X1062Y1475D01*
X1062Y1473D01*
X1064Y1473D01*
X1064Y1471D01*
X1068Y1471D01*
X1068Y1469D01*
X1070Y1469D01*
X1070Y1467D01*
X1074Y1467D01*
X1074Y1465D01*
X1076Y1465D01*
X1076Y1463D01*
X1078Y1463D01*
X1078Y1461D01*
X1080Y1461D01*
X1080Y1459D01*
X1082Y1459D01*
X1082Y1455D01*
X1084Y1455D01*
X1084Y1453D01*
X1086Y1453D01*
X1086Y1449D01*
X1088Y1449D01*
X1088Y1445D01*
X1090Y1445D01*
X1090Y1439D01*
X1092Y1439D01*
X1092Y1427D01*
X1094Y1427D01*
X1094Y1421D01*
X1092Y1421D01*
X1092Y1409D01*
X1090Y1409D01*
X1090Y1403D01*
X1088Y1403D01*
X1088Y1399D01*
X1086Y1399D01*
X1086Y1395D01*
X1084Y1395D01*
X1084Y1393D01*
X1082Y1393D01*
X1082Y1389D01*
X1080Y1389D01*
X1080Y1387D01*
X1078Y1387D01*
X1078Y1385D01*
X1076Y1385D01*
X1076Y1383D01*
X1074Y1383D01*
X1074Y1381D01*
X1072Y1381D01*
X1072Y1379D01*
X1068Y1379D01*
X1068Y1377D01*
X1064Y1377D01*
X1064Y1375D01*
X1062Y1375D01*
X1062Y1373D01*
X1056Y1373D01*
X1056Y1371D01*
X1050Y1371D01*
X1050Y1369D01*
X1692Y1369D01*
X1692Y1499D01*
X754Y1499D01*
G37*
D02*
G36*
X754Y1479D02*
X754Y1455D01*
X842Y1455D01*
X842Y1457D01*
X844Y1457D01*
X844Y1459D01*
X846Y1459D01*
X846Y1461D01*
X848Y1461D01*
X848Y1463D01*
X850Y1463D01*
X850Y1465D01*
X852Y1465D01*
X852Y1467D01*
X854Y1467D01*
X854Y1469D01*
X856Y1469D01*
X856Y1471D01*
X860Y1471D01*
X860Y1473D01*
X864Y1473D01*
X864Y1475D01*
X868Y1475D01*
X868Y1477D01*
X876Y1477D01*
X876Y1479D01*
X754Y1479D01*
G37*
D02*
G36*
X900Y1479D02*
X900Y1477D01*
X906Y1477D01*
X906Y1475D01*
X912Y1475D01*
X912Y1473D01*
X914Y1473D01*
X914Y1471D01*
X918Y1471D01*
X918Y1469D01*
X920Y1469D01*
X920Y1467D01*
X924Y1467D01*
X924Y1465D01*
X926Y1465D01*
X926Y1463D01*
X928Y1463D01*
X928Y1461D01*
X930Y1461D01*
X930Y1459D01*
X932Y1459D01*
X932Y1455D01*
X934Y1455D01*
X934Y1453D01*
X936Y1453D01*
X936Y1449D01*
X938Y1449D01*
X938Y1445D01*
X940Y1445D01*
X940Y1439D01*
X942Y1439D01*
X942Y1427D01*
X944Y1427D01*
X944Y1421D01*
X942Y1421D01*
X942Y1409D01*
X940Y1409D01*
X940Y1403D01*
X938Y1403D01*
X938Y1399D01*
X936Y1399D01*
X936Y1395D01*
X934Y1395D01*
X934Y1393D01*
X932Y1393D01*
X932Y1389D01*
X930Y1389D01*
X930Y1387D01*
X928Y1387D01*
X928Y1385D01*
X926Y1385D01*
X926Y1383D01*
X924Y1383D01*
X924Y1381D01*
X922Y1381D01*
X922Y1379D01*
X918Y1379D01*
X918Y1377D01*
X914Y1377D01*
X914Y1375D01*
X912Y1375D01*
X912Y1373D01*
X906Y1373D01*
X906Y1371D01*
X900Y1371D01*
X900Y1369D01*
X1026Y1369D01*
X1026Y1371D01*
X1018Y1371D01*
X1018Y1373D01*
X1014Y1373D01*
X1014Y1375D01*
X1010Y1375D01*
X1010Y1377D01*
X1006Y1377D01*
X1006Y1379D01*
X1004Y1379D01*
X1004Y1381D01*
X1002Y1381D01*
X1002Y1383D01*
X1000Y1383D01*
X1000Y1385D01*
X998Y1385D01*
X998Y1387D01*
X996Y1387D01*
X996Y1389D01*
X994Y1389D01*
X994Y1391D01*
X992Y1391D01*
X992Y1395D01*
X990Y1395D01*
X990Y1397D01*
X988Y1397D01*
X988Y1401D01*
X986Y1401D01*
X986Y1407D01*
X984Y1407D01*
X984Y1415D01*
X982Y1415D01*
X982Y1433D01*
X984Y1433D01*
X984Y1441D01*
X986Y1441D01*
X986Y1447D01*
X988Y1447D01*
X988Y1451D01*
X990Y1451D01*
X990Y1453D01*
X992Y1453D01*
X992Y1457D01*
X994Y1457D01*
X994Y1459D01*
X996Y1459D01*
X996Y1461D01*
X998Y1461D01*
X998Y1463D01*
X1000Y1463D01*
X1000Y1465D01*
X1002Y1465D01*
X1002Y1467D01*
X1004Y1467D01*
X1004Y1469D01*
X1006Y1469D01*
X1006Y1471D01*
X1010Y1471D01*
X1010Y1473D01*
X1014Y1473D01*
X1014Y1475D01*
X1018Y1475D01*
X1018Y1477D01*
X1026Y1477D01*
X1026Y1479D01*
X900Y1479D01*
G37*
D02*
G36*
X718Y1395D02*
X718Y1369D01*
X876Y1369D01*
X876Y1371D01*
X868Y1371D01*
X868Y1373D01*
X864Y1373D01*
X864Y1375D01*
X860Y1375D01*
X860Y1377D01*
X856Y1377D01*
X856Y1379D01*
X854Y1379D01*
X854Y1381D01*
X852Y1381D01*
X852Y1383D01*
X850Y1383D01*
X850Y1385D01*
X848Y1385D01*
X848Y1387D01*
X846Y1387D01*
X846Y1389D01*
X844Y1389D01*
X844Y1391D01*
X842Y1391D01*
X842Y1395D01*
X718Y1395D01*
G37*
D02*
G36*
X718Y1369D02*
X718Y1367D01*
X1692Y1367D01*
X1692Y1369D01*
X718Y1369D01*
G37*
D02*
G36*
X718Y1369D02*
X718Y1367D01*
X1692Y1367D01*
X1692Y1369D01*
X718Y1369D01*
G37*
D02*
G36*
X718Y1369D02*
X718Y1367D01*
X1692Y1367D01*
X1692Y1369D01*
X718Y1369D01*
G37*
D02*
G36*
X718Y1367D02*
X718Y1329D01*
X1432Y1329D01*
X1432Y1327D01*
X1438Y1327D01*
X1438Y1325D01*
X1442Y1325D01*
X1442Y1323D01*
X1444Y1323D01*
X1444Y1321D01*
X1446Y1321D01*
X1446Y1319D01*
X1448Y1319D01*
X1448Y1317D01*
X1450Y1317D01*
X1450Y1313D01*
X1452Y1313D01*
X1452Y1309D01*
X1454Y1309D01*
X1454Y1299D01*
X1456Y1299D01*
X1456Y1267D01*
X1454Y1267D01*
X1454Y1119D01*
X1578Y1119D01*
X1578Y1117D01*
X1586Y1117D01*
X1586Y1115D01*
X1590Y1115D01*
X1590Y1113D01*
X1594Y1113D01*
X1594Y1111D01*
X1598Y1111D01*
X1598Y1109D01*
X1600Y1109D01*
X1600Y1107D01*
X1604Y1107D01*
X1604Y1105D01*
X1606Y1105D01*
X1606Y1103D01*
X1608Y1103D01*
X1608Y1101D01*
X1610Y1101D01*
X1610Y1099D01*
X1612Y1099D01*
X1612Y1095D01*
X1614Y1095D01*
X1614Y1093D01*
X1616Y1093D01*
X1616Y1089D01*
X1618Y1089D01*
X1618Y1085D01*
X1620Y1085D01*
X1620Y1081D01*
X1622Y1081D01*
X1622Y1071D01*
X1624Y1071D01*
X1624Y1053D01*
X1622Y1053D01*
X1622Y1045D01*
X1620Y1045D01*
X1620Y1039D01*
X1618Y1039D01*
X1618Y1035D01*
X1616Y1035D01*
X1616Y1033D01*
X1614Y1033D01*
X1614Y1029D01*
X1612Y1029D01*
X1612Y1027D01*
X1610Y1027D01*
X1610Y1025D01*
X1608Y1025D01*
X1608Y1001D01*
X1610Y1001D01*
X1610Y999D01*
X1612Y999D01*
X1612Y995D01*
X1614Y995D01*
X1614Y993D01*
X1616Y993D01*
X1616Y989D01*
X1618Y989D01*
X1618Y985D01*
X1620Y985D01*
X1620Y981D01*
X1622Y981D01*
X1622Y971D01*
X1624Y971D01*
X1624Y953D01*
X1622Y953D01*
X1622Y945D01*
X1620Y945D01*
X1620Y939D01*
X1618Y939D01*
X1618Y935D01*
X1616Y935D01*
X1616Y933D01*
X1614Y933D01*
X1614Y929D01*
X1612Y929D01*
X1612Y927D01*
X1610Y927D01*
X1610Y925D01*
X1608Y925D01*
X1608Y901D01*
X1610Y901D01*
X1610Y899D01*
X1612Y899D01*
X1612Y895D01*
X1614Y895D01*
X1614Y893D01*
X1616Y893D01*
X1616Y889D01*
X1618Y889D01*
X1618Y885D01*
X1620Y885D01*
X1620Y881D01*
X1622Y881D01*
X1622Y871D01*
X1624Y871D01*
X1624Y853D01*
X1622Y853D01*
X1622Y845D01*
X1620Y845D01*
X1620Y839D01*
X1618Y839D01*
X1618Y835D01*
X1616Y835D01*
X1616Y833D01*
X1614Y833D01*
X1614Y829D01*
X1612Y829D01*
X1612Y827D01*
X1610Y827D01*
X1610Y825D01*
X1608Y825D01*
X1608Y801D01*
X1610Y801D01*
X1610Y799D01*
X1612Y799D01*
X1612Y795D01*
X1614Y795D01*
X1614Y793D01*
X1616Y793D01*
X1616Y789D01*
X1618Y789D01*
X1618Y785D01*
X1620Y785D01*
X1620Y781D01*
X1622Y781D01*
X1622Y771D01*
X1624Y771D01*
X1624Y753D01*
X1622Y753D01*
X1622Y745D01*
X1620Y745D01*
X1620Y739D01*
X1618Y739D01*
X1618Y735D01*
X1616Y735D01*
X1616Y733D01*
X1614Y733D01*
X1614Y729D01*
X1612Y729D01*
X1612Y727D01*
X1610Y727D01*
X1610Y725D01*
X1608Y725D01*
X1608Y701D01*
X1610Y701D01*
X1610Y699D01*
X1612Y699D01*
X1612Y695D01*
X1614Y695D01*
X1614Y693D01*
X1616Y693D01*
X1616Y689D01*
X1618Y689D01*
X1618Y685D01*
X1620Y685D01*
X1620Y681D01*
X1622Y681D01*
X1622Y671D01*
X1624Y671D01*
X1624Y653D01*
X1622Y653D01*
X1622Y645D01*
X1620Y645D01*
X1620Y639D01*
X1618Y639D01*
X1618Y635D01*
X1616Y635D01*
X1616Y633D01*
X1614Y633D01*
X1614Y629D01*
X1612Y629D01*
X1612Y627D01*
X1610Y627D01*
X1610Y625D01*
X1608Y625D01*
X1608Y601D01*
X1610Y601D01*
X1610Y599D01*
X1612Y599D01*
X1612Y595D01*
X1614Y595D01*
X1614Y593D01*
X1616Y593D01*
X1616Y589D01*
X1618Y589D01*
X1618Y585D01*
X1620Y585D01*
X1620Y581D01*
X1622Y581D01*
X1622Y571D01*
X1624Y571D01*
X1624Y553D01*
X1622Y553D01*
X1622Y545D01*
X1620Y545D01*
X1620Y539D01*
X1618Y539D01*
X1618Y535D01*
X1616Y535D01*
X1616Y533D01*
X1614Y533D01*
X1614Y529D01*
X1612Y529D01*
X1612Y527D01*
X1610Y527D01*
X1610Y525D01*
X1608Y525D01*
X1608Y501D01*
X1610Y501D01*
X1610Y499D01*
X1612Y499D01*
X1612Y495D01*
X1614Y495D01*
X1614Y493D01*
X1616Y493D01*
X1616Y489D01*
X1618Y489D01*
X1618Y485D01*
X1620Y485D01*
X1620Y481D01*
X1622Y481D01*
X1622Y471D01*
X1624Y471D01*
X1624Y453D01*
X1622Y453D01*
X1622Y445D01*
X1620Y445D01*
X1620Y439D01*
X1618Y439D01*
X1618Y435D01*
X1616Y435D01*
X1616Y433D01*
X1614Y433D01*
X1614Y429D01*
X1612Y429D01*
X1612Y427D01*
X1610Y427D01*
X1610Y425D01*
X1608Y425D01*
X1608Y401D01*
X1610Y401D01*
X1610Y399D01*
X1612Y399D01*
X1612Y395D01*
X1614Y395D01*
X1614Y393D01*
X1616Y393D01*
X1616Y389D01*
X1618Y389D01*
X1618Y385D01*
X1620Y385D01*
X1620Y381D01*
X1622Y381D01*
X1622Y371D01*
X1624Y371D01*
X1624Y353D01*
X1622Y353D01*
X1622Y345D01*
X1620Y345D01*
X1620Y339D01*
X1618Y339D01*
X1618Y335D01*
X1616Y335D01*
X1616Y333D01*
X1614Y333D01*
X1614Y329D01*
X1612Y329D01*
X1612Y327D01*
X1610Y327D01*
X1610Y325D01*
X1608Y325D01*
X1608Y321D01*
X1604Y321D01*
X1604Y319D01*
X1602Y319D01*
X1602Y317D01*
X1600Y317D01*
X1600Y315D01*
X1596Y315D01*
X1596Y313D01*
X1594Y313D01*
X1594Y311D01*
X1590Y311D01*
X1590Y309D01*
X1584Y309D01*
X1584Y307D01*
X1574Y307D01*
X1574Y305D01*
X1692Y305D01*
X1692Y1367D01*
X718Y1367D01*
G37*
D02*
G36*
X556Y1349D02*
X556Y1333D01*
X608Y1333D01*
X608Y1335D01*
X598Y1335D01*
X598Y1337D01*
X592Y1337D01*
X592Y1339D01*
X588Y1339D01*
X588Y1341D01*
X584Y1341D01*
X584Y1343D01*
X582Y1343D01*
X582Y1345D01*
X580Y1345D01*
X580Y1347D01*
X576Y1347D01*
X576Y1349D01*
X556Y1349D01*
G37*
D02*
G36*
X636Y1341D02*
X636Y1339D01*
X634Y1339D01*
X634Y1337D01*
X628Y1337D01*
X628Y1335D01*
X616Y1335D01*
X616Y1333D01*
X658Y1333D01*
X658Y1341D01*
X636Y1341D01*
G37*
D02*
G36*
X556Y1333D02*
X556Y1331D01*
X658Y1331D01*
X658Y1333D01*
X556Y1333D01*
G37*
D02*
G36*
X556Y1333D02*
X556Y1331D01*
X658Y1331D01*
X658Y1333D01*
X556Y1333D01*
G37*
D02*
G36*
X556Y1331D02*
X556Y1317D01*
X582Y1317D01*
X582Y1315D01*
X588Y1315D01*
X588Y1313D01*
X592Y1313D01*
X592Y1311D01*
X594Y1311D01*
X594Y1309D01*
X596Y1309D01*
X596Y1307D01*
X598Y1307D01*
X598Y1305D01*
X600Y1305D01*
X600Y1303D01*
X602Y1303D01*
X602Y1299D01*
X604Y1299D01*
X604Y1289D01*
X606Y1289D01*
X606Y1229D01*
X688Y1229D01*
X688Y1227D01*
X694Y1227D01*
X694Y1225D01*
X698Y1225D01*
X698Y1223D01*
X702Y1223D01*
X702Y1221D01*
X706Y1221D01*
X706Y1219D01*
X708Y1219D01*
X708Y1217D01*
X710Y1217D01*
X710Y1215D01*
X714Y1215D01*
X714Y1213D01*
X716Y1213D01*
X716Y1209D01*
X718Y1209D01*
X718Y1207D01*
X720Y1207D01*
X720Y1205D01*
X722Y1205D01*
X722Y1201D01*
X724Y1201D01*
X724Y1197D01*
X726Y1197D01*
X726Y1193D01*
X728Y1193D01*
X728Y1187D01*
X730Y1187D01*
X730Y1169D01*
X732Y1169D01*
X732Y1167D01*
X734Y1167D01*
X734Y1165D01*
X736Y1165D01*
X736Y1163D01*
X738Y1163D01*
X738Y1161D01*
X742Y1161D01*
X742Y1159D01*
X744Y1159D01*
X744Y1157D01*
X746Y1157D01*
X746Y1155D01*
X962Y1155D01*
X962Y1153D01*
X972Y1153D01*
X972Y1151D01*
X976Y1151D01*
X976Y1149D01*
X980Y1149D01*
X980Y1147D01*
X982Y1147D01*
X982Y1145D01*
X984Y1145D01*
X984Y1143D01*
X986Y1143D01*
X986Y1141D01*
X988Y1141D01*
X988Y1137D01*
X990Y1137D01*
X990Y1131D01*
X992Y1131D01*
X992Y1079D01*
X1050Y1079D01*
X1050Y1077D01*
X1056Y1077D01*
X1056Y1075D01*
X1062Y1075D01*
X1062Y1073D01*
X1064Y1073D01*
X1064Y1071D01*
X1068Y1071D01*
X1068Y1069D01*
X1070Y1069D01*
X1070Y1067D01*
X1074Y1067D01*
X1074Y1065D01*
X1076Y1065D01*
X1076Y1063D01*
X1078Y1063D01*
X1078Y1061D01*
X1080Y1061D01*
X1080Y1059D01*
X1082Y1059D01*
X1082Y1055D01*
X1084Y1055D01*
X1084Y1053D01*
X1086Y1053D01*
X1086Y1049D01*
X1088Y1049D01*
X1088Y1045D01*
X1090Y1045D01*
X1090Y1039D01*
X1092Y1039D01*
X1092Y1027D01*
X1094Y1027D01*
X1094Y1021D01*
X1092Y1021D01*
X1092Y1009D01*
X1090Y1009D01*
X1090Y1003D01*
X1088Y1003D01*
X1088Y999D01*
X1086Y999D01*
X1086Y995D01*
X1084Y995D01*
X1084Y993D01*
X1082Y993D01*
X1082Y975D01*
X1302Y975D01*
X1302Y973D01*
X1380Y973D01*
X1380Y971D01*
X1386Y971D01*
X1386Y969D01*
X1390Y969D01*
X1390Y967D01*
X1392Y967D01*
X1392Y965D01*
X1396Y965D01*
X1396Y963D01*
X1398Y963D01*
X1398Y961D01*
X1400Y961D01*
X1400Y957D01*
X1402Y957D01*
X1402Y955D01*
X1404Y955D01*
X1404Y951D01*
X1406Y951D01*
X1406Y945D01*
X1408Y945D01*
X1408Y927D01*
X1406Y927D01*
X1406Y921D01*
X1404Y921D01*
X1404Y917D01*
X1402Y917D01*
X1402Y913D01*
X1400Y913D01*
X1400Y911D01*
X1398Y911D01*
X1398Y909D01*
X1396Y909D01*
X1396Y907D01*
X1394Y907D01*
X1394Y905D01*
X1392Y905D01*
X1392Y903D01*
X1388Y903D01*
X1388Y901D01*
X1382Y901D01*
X1382Y899D01*
X1372Y899D01*
X1372Y897D01*
X1492Y897D01*
X1492Y899D01*
X1490Y899D01*
X1490Y901D01*
X1488Y901D01*
X1488Y903D01*
X1486Y903D01*
X1486Y905D01*
X1484Y905D01*
X1484Y907D01*
X1482Y907D01*
X1482Y909D01*
X1480Y909D01*
X1480Y911D01*
X1478Y911D01*
X1478Y913D01*
X1476Y913D01*
X1476Y915D01*
X1474Y915D01*
X1474Y917D01*
X1472Y917D01*
X1472Y919D01*
X1470Y919D01*
X1470Y921D01*
X1468Y921D01*
X1468Y923D01*
X1466Y923D01*
X1466Y925D01*
X1464Y925D01*
X1464Y927D01*
X1462Y927D01*
X1462Y929D01*
X1460Y929D01*
X1460Y931D01*
X1458Y931D01*
X1458Y933D01*
X1456Y933D01*
X1456Y935D01*
X1454Y935D01*
X1454Y937D01*
X1452Y937D01*
X1452Y939D01*
X1450Y939D01*
X1450Y941D01*
X1448Y941D01*
X1448Y943D01*
X1446Y943D01*
X1446Y945D01*
X1444Y945D01*
X1444Y947D01*
X1442Y947D01*
X1442Y951D01*
X1440Y951D01*
X1440Y953D01*
X1438Y953D01*
X1438Y955D01*
X1436Y955D01*
X1436Y957D01*
X1434Y957D01*
X1434Y959D01*
X1432Y959D01*
X1432Y961D01*
X1430Y961D01*
X1430Y963D01*
X1428Y963D01*
X1428Y965D01*
X1426Y965D01*
X1426Y967D01*
X1424Y967D01*
X1424Y969D01*
X1422Y969D01*
X1422Y971D01*
X1420Y971D01*
X1420Y973D01*
X1418Y973D01*
X1418Y975D01*
X1416Y975D01*
X1416Y977D01*
X1414Y977D01*
X1414Y979D01*
X1412Y979D01*
X1412Y981D01*
X1410Y981D01*
X1410Y983D01*
X1408Y983D01*
X1408Y985D01*
X1406Y985D01*
X1406Y987D01*
X1404Y987D01*
X1404Y989D01*
X1402Y989D01*
X1402Y991D01*
X1400Y991D01*
X1400Y995D01*
X1398Y995D01*
X1398Y999D01*
X1396Y999D01*
X1396Y1003D01*
X1394Y1003D01*
X1394Y1269D01*
X682Y1269D01*
X682Y1271D01*
X676Y1271D01*
X676Y1273D01*
X672Y1273D01*
X672Y1275D01*
X670Y1275D01*
X670Y1277D01*
X666Y1277D01*
X666Y1281D01*
X664Y1281D01*
X664Y1283D01*
X662Y1283D01*
X662Y1287D01*
X660Y1287D01*
X660Y1291D01*
X658Y1291D01*
X658Y1331D01*
X556Y1331D01*
G37*
D02*
G36*
X40Y1229D02*
X40Y1119D01*
X262Y1119D01*
X262Y1121D01*
X256Y1121D01*
X256Y1123D01*
X252Y1123D01*
X252Y1125D01*
X248Y1125D01*
X248Y1127D01*
X244Y1127D01*
X244Y1129D01*
X242Y1129D01*
X242Y1131D01*
X240Y1131D01*
X240Y1133D01*
X236Y1133D01*
X236Y1135D01*
X234Y1135D01*
X234Y1139D01*
X232Y1139D01*
X232Y1141D01*
X230Y1141D01*
X230Y1143D01*
X228Y1143D01*
X228Y1147D01*
X226Y1147D01*
X226Y1151D01*
X224Y1151D01*
X224Y1155D01*
X222Y1155D01*
X222Y1163D01*
X220Y1163D01*
X220Y1185D01*
X222Y1185D01*
X222Y1193D01*
X224Y1193D01*
X224Y1197D01*
X226Y1197D01*
X226Y1201D01*
X228Y1201D01*
X228Y1205D01*
X230Y1205D01*
X230Y1207D01*
X232Y1207D01*
X232Y1209D01*
X234Y1209D01*
X234Y1213D01*
X236Y1213D01*
X236Y1215D01*
X240Y1215D01*
X240Y1217D01*
X242Y1217D01*
X242Y1219D01*
X244Y1219D01*
X244Y1221D01*
X248Y1221D01*
X248Y1223D01*
X252Y1223D01*
X252Y1225D01*
X256Y1225D01*
X256Y1227D01*
X264Y1227D01*
X264Y1229D01*
X40Y1229D01*
G37*
D02*
G36*
X606Y1229D02*
X606Y1197D01*
X626Y1197D01*
X626Y1201D01*
X628Y1201D01*
X628Y1205D01*
X630Y1205D01*
X630Y1207D01*
X632Y1207D01*
X632Y1209D01*
X634Y1209D01*
X634Y1213D01*
X636Y1213D01*
X636Y1215D01*
X640Y1215D01*
X640Y1217D01*
X642Y1217D01*
X642Y1219D01*
X644Y1219D01*
X644Y1221D01*
X648Y1221D01*
X648Y1223D01*
X652Y1223D01*
X652Y1225D01*
X656Y1225D01*
X656Y1227D01*
X664Y1227D01*
X664Y1229D01*
X606Y1229D01*
G37*
D02*
G36*
X40Y1119D02*
X40Y1117D01*
X548Y1117D01*
X548Y1119D01*
X40Y1119D01*
G37*
D02*
G36*
X40Y1119D02*
X40Y1117D01*
X548Y1117D01*
X548Y1119D01*
X40Y1119D01*
G37*
D02*
G36*
X1454Y1119D02*
X1454Y1023D01*
X1456Y1023D01*
X1456Y1019D01*
X1458Y1019D01*
X1458Y1017D01*
X1460Y1017D01*
X1460Y1015D01*
X1462Y1015D01*
X1462Y1013D01*
X1464Y1013D01*
X1464Y1011D01*
X1466Y1011D01*
X1466Y1009D01*
X1468Y1009D01*
X1468Y1007D01*
X1470Y1007D01*
X1470Y1005D01*
X1472Y1005D01*
X1472Y1003D01*
X1474Y1003D01*
X1474Y1001D01*
X1476Y1001D01*
X1476Y999D01*
X1478Y999D01*
X1478Y997D01*
X1480Y997D01*
X1480Y995D01*
X1482Y995D01*
X1482Y993D01*
X1484Y993D01*
X1484Y991D01*
X1486Y991D01*
X1486Y989D01*
X1488Y989D01*
X1488Y987D01*
X1490Y987D01*
X1490Y985D01*
X1492Y985D01*
X1492Y983D01*
X1494Y983D01*
X1494Y981D01*
X1514Y981D01*
X1514Y985D01*
X1516Y985D01*
X1516Y989D01*
X1518Y989D01*
X1518Y993D01*
X1520Y993D01*
X1520Y995D01*
X1522Y995D01*
X1522Y997D01*
X1524Y997D01*
X1524Y1001D01*
X1526Y1001D01*
X1526Y1003D01*
X1528Y1003D01*
X1528Y1023D01*
X1526Y1023D01*
X1526Y1025D01*
X1524Y1025D01*
X1524Y1027D01*
X1522Y1027D01*
X1522Y1029D01*
X1520Y1029D01*
X1520Y1033D01*
X1518Y1033D01*
X1518Y1035D01*
X1516Y1035D01*
X1516Y1039D01*
X1514Y1039D01*
X1514Y1045D01*
X1512Y1045D01*
X1512Y1053D01*
X1510Y1053D01*
X1510Y1071D01*
X1512Y1071D01*
X1512Y1079D01*
X1514Y1079D01*
X1514Y1085D01*
X1516Y1085D01*
X1516Y1089D01*
X1518Y1089D01*
X1518Y1093D01*
X1520Y1093D01*
X1520Y1095D01*
X1522Y1095D01*
X1522Y1097D01*
X1524Y1097D01*
X1524Y1101D01*
X1526Y1101D01*
X1526Y1103D01*
X1528Y1103D01*
X1528Y1105D01*
X1532Y1105D01*
X1532Y1107D01*
X1534Y1107D01*
X1534Y1109D01*
X1536Y1109D01*
X1536Y1111D01*
X1540Y1111D01*
X1540Y1113D01*
X1544Y1113D01*
X1544Y1115D01*
X1548Y1115D01*
X1548Y1117D01*
X1556Y1117D01*
X1556Y1119D01*
X1454Y1119D01*
G37*
D02*
G36*
X40Y1117D02*
X40Y543D01*
X532Y543D01*
X532Y429D01*
X526Y429D01*
X526Y409D01*
X528Y409D01*
X528Y405D01*
X530Y405D01*
X530Y397D01*
X532Y397D01*
X532Y375D01*
X530Y375D01*
X530Y369D01*
X528Y369D01*
X528Y363D01*
X526Y363D01*
X526Y359D01*
X524Y359D01*
X524Y355D01*
X522Y355D01*
X522Y353D01*
X520Y353D01*
X520Y351D01*
X518Y351D01*
X518Y349D01*
X516Y349D01*
X516Y325D01*
X518Y325D01*
X518Y323D01*
X520Y323D01*
X520Y319D01*
X522Y319D01*
X522Y317D01*
X524Y317D01*
X524Y313D01*
X526Y313D01*
X526Y309D01*
X528Y309D01*
X528Y305D01*
X660Y305D01*
X660Y307D01*
X650Y307D01*
X650Y309D01*
X644Y309D01*
X644Y311D01*
X640Y311D01*
X640Y313D01*
X638Y313D01*
X638Y315D01*
X634Y315D01*
X634Y317D01*
X632Y317D01*
X632Y319D01*
X630Y319D01*
X630Y321D01*
X628Y321D01*
X628Y323D01*
X626Y323D01*
X626Y325D01*
X624Y325D01*
X624Y327D01*
X622Y327D01*
X622Y329D01*
X620Y329D01*
X620Y333D01*
X618Y333D01*
X618Y335D01*
X616Y335D01*
X616Y339D01*
X614Y339D01*
X614Y345D01*
X612Y345D01*
X612Y353D01*
X610Y353D01*
X610Y371D01*
X612Y371D01*
X612Y379D01*
X614Y379D01*
X614Y385D01*
X616Y385D01*
X616Y389D01*
X618Y389D01*
X618Y393D01*
X620Y393D01*
X620Y395D01*
X622Y395D01*
X622Y397D01*
X624Y397D01*
X624Y401D01*
X626Y401D01*
X626Y403D01*
X628Y403D01*
X628Y423D01*
X626Y423D01*
X626Y425D01*
X624Y425D01*
X624Y427D01*
X622Y427D01*
X622Y429D01*
X620Y429D01*
X620Y433D01*
X618Y433D01*
X618Y435D01*
X616Y435D01*
X616Y439D01*
X614Y439D01*
X614Y445D01*
X612Y445D01*
X612Y453D01*
X610Y453D01*
X610Y471D01*
X612Y471D01*
X612Y479D01*
X614Y479D01*
X614Y485D01*
X616Y485D01*
X616Y489D01*
X618Y489D01*
X618Y493D01*
X620Y493D01*
X620Y495D01*
X622Y495D01*
X622Y497D01*
X624Y497D01*
X624Y501D01*
X626Y501D01*
X626Y503D01*
X628Y503D01*
X628Y523D01*
X626Y523D01*
X626Y525D01*
X624Y525D01*
X624Y527D01*
X622Y527D01*
X622Y529D01*
X620Y529D01*
X620Y533D01*
X618Y533D01*
X618Y535D01*
X616Y535D01*
X616Y539D01*
X614Y539D01*
X614Y545D01*
X612Y545D01*
X612Y553D01*
X610Y553D01*
X610Y571D01*
X612Y571D01*
X612Y579D01*
X614Y579D01*
X614Y585D01*
X616Y585D01*
X616Y589D01*
X618Y589D01*
X618Y593D01*
X620Y593D01*
X620Y595D01*
X622Y595D01*
X622Y597D01*
X624Y597D01*
X624Y601D01*
X626Y601D01*
X626Y603D01*
X628Y603D01*
X628Y623D01*
X626Y623D01*
X626Y625D01*
X624Y625D01*
X624Y627D01*
X622Y627D01*
X622Y629D01*
X620Y629D01*
X620Y633D01*
X618Y633D01*
X618Y635D01*
X616Y635D01*
X616Y639D01*
X614Y639D01*
X614Y645D01*
X612Y645D01*
X612Y653D01*
X610Y653D01*
X610Y671D01*
X612Y671D01*
X612Y679D01*
X614Y679D01*
X614Y685D01*
X616Y685D01*
X616Y689D01*
X618Y689D01*
X618Y693D01*
X620Y693D01*
X620Y695D01*
X622Y695D01*
X622Y697D01*
X624Y697D01*
X624Y701D01*
X626Y701D01*
X626Y703D01*
X628Y703D01*
X628Y723D01*
X626Y723D01*
X626Y725D01*
X624Y725D01*
X624Y727D01*
X622Y727D01*
X622Y729D01*
X620Y729D01*
X620Y733D01*
X618Y733D01*
X618Y735D01*
X616Y735D01*
X616Y739D01*
X614Y739D01*
X614Y745D01*
X612Y745D01*
X612Y753D01*
X610Y753D01*
X610Y771D01*
X612Y771D01*
X612Y779D01*
X614Y779D01*
X614Y785D01*
X616Y785D01*
X616Y789D01*
X618Y789D01*
X618Y793D01*
X620Y793D01*
X620Y795D01*
X622Y795D01*
X622Y797D01*
X624Y797D01*
X624Y801D01*
X626Y801D01*
X626Y803D01*
X628Y803D01*
X628Y823D01*
X626Y823D01*
X626Y825D01*
X624Y825D01*
X624Y827D01*
X622Y827D01*
X622Y829D01*
X620Y829D01*
X620Y833D01*
X618Y833D01*
X618Y835D01*
X616Y835D01*
X616Y839D01*
X614Y839D01*
X614Y845D01*
X612Y845D01*
X612Y853D01*
X610Y853D01*
X610Y871D01*
X612Y871D01*
X612Y879D01*
X614Y879D01*
X614Y885D01*
X616Y885D01*
X616Y889D01*
X618Y889D01*
X618Y893D01*
X620Y893D01*
X620Y895D01*
X622Y895D01*
X622Y897D01*
X624Y897D01*
X624Y901D01*
X626Y901D01*
X626Y903D01*
X628Y903D01*
X628Y923D01*
X626Y923D01*
X626Y925D01*
X624Y925D01*
X624Y927D01*
X622Y927D01*
X622Y929D01*
X620Y929D01*
X620Y933D01*
X570Y933D01*
X570Y935D01*
X566Y935D01*
X566Y937D01*
X562Y937D01*
X562Y939D01*
X560Y939D01*
X560Y941D01*
X558Y941D01*
X558Y943D01*
X556Y943D01*
X556Y945D01*
X554Y945D01*
X554Y949D01*
X552Y949D01*
X552Y955D01*
X550Y955D01*
X550Y1021D01*
X548Y1021D01*
X548Y1117D01*
X40Y1117D01*
G37*
D02*
G36*
X992Y1079D02*
X992Y1073D01*
X1014Y1073D01*
X1014Y1075D01*
X1018Y1075D01*
X1018Y1077D01*
X1026Y1077D01*
X1026Y1079D01*
X992Y1079D01*
G37*
D02*
G36*
X1082Y975D02*
X1082Y973D01*
X1088Y973D01*
X1088Y971D01*
X1092Y971D01*
X1092Y969D01*
X1096Y969D01*
X1096Y967D01*
X1098Y967D01*
X1098Y965D01*
X1100Y965D01*
X1100Y963D01*
X1102Y963D01*
X1102Y961D01*
X1122Y961D01*
X1122Y963D01*
X1124Y963D01*
X1124Y965D01*
X1128Y965D01*
X1128Y967D01*
X1130Y967D01*
X1130Y969D01*
X1134Y969D01*
X1134Y971D01*
X1138Y971D01*
X1138Y973D01*
X1148Y973D01*
X1148Y975D01*
X1082Y975D01*
G37*
D02*
G36*
X1152Y975D02*
X1152Y973D01*
X1162Y973D01*
X1162Y971D01*
X1166Y971D01*
X1166Y969D01*
X1170Y969D01*
X1170Y967D01*
X1174Y967D01*
X1174Y965D01*
X1176Y965D01*
X1176Y963D01*
X1178Y963D01*
X1178Y961D01*
X1198Y961D01*
X1198Y963D01*
X1200Y963D01*
X1200Y965D01*
X1202Y965D01*
X1202Y967D01*
X1204Y967D01*
X1204Y969D01*
X1208Y969D01*
X1208Y971D01*
X1214Y971D01*
X1214Y973D01*
X1224Y973D01*
X1224Y975D01*
X1152Y975D01*
G37*
D02*
G36*
X1226Y975D02*
X1226Y973D01*
X1238Y973D01*
X1238Y971D01*
X1242Y971D01*
X1242Y969D01*
X1246Y969D01*
X1246Y967D01*
X1248Y967D01*
X1248Y965D01*
X1250Y965D01*
X1250Y963D01*
X1252Y963D01*
X1252Y961D01*
X1272Y961D01*
X1272Y963D01*
X1274Y963D01*
X1274Y965D01*
X1278Y965D01*
X1278Y967D01*
X1280Y967D01*
X1280Y969D01*
X1284Y969D01*
X1284Y971D01*
X1288Y971D01*
X1288Y973D01*
X1298Y973D01*
X1298Y975D01*
X1226Y975D01*
G37*
D02*
G36*
X1312Y973D02*
X1312Y971D01*
X1316Y971D01*
X1316Y969D01*
X1320Y969D01*
X1320Y967D01*
X1324Y967D01*
X1324Y965D01*
X1326Y965D01*
X1326Y963D01*
X1346Y963D01*
X1346Y965D01*
X1348Y965D01*
X1348Y967D01*
X1352Y967D01*
X1352Y969D01*
X1356Y969D01*
X1356Y971D01*
X1362Y971D01*
X1362Y973D01*
X1312Y973D01*
G37*
D02*
G36*
X1324Y909D02*
X1324Y907D01*
X1322Y907D01*
X1322Y905D01*
X1318Y905D01*
X1318Y903D01*
X1316Y903D01*
X1316Y901D01*
X1308Y901D01*
X1308Y899D01*
X1302Y899D01*
X1302Y897D01*
X1370Y897D01*
X1370Y899D01*
X1358Y899D01*
X1358Y901D01*
X1354Y901D01*
X1354Y903D01*
X1350Y903D01*
X1350Y905D01*
X1348Y905D01*
X1348Y907D01*
X1346Y907D01*
X1346Y909D01*
X1324Y909D01*
G37*
D02*
G36*
X1300Y897D02*
X1300Y895D01*
X1494Y895D01*
X1494Y897D01*
X1300Y897D01*
G37*
D02*
G36*
X1300Y897D02*
X1300Y895D01*
X1494Y895D01*
X1494Y897D01*
X1300Y897D01*
G37*
D02*
G36*
X1298Y895D02*
X1298Y893D01*
X1296Y893D01*
X1296Y891D01*
X1294Y891D01*
X1294Y889D01*
X1292Y889D01*
X1292Y887D01*
X1456Y887D01*
X1456Y885D01*
X1464Y885D01*
X1464Y883D01*
X1468Y883D01*
X1468Y881D01*
X1472Y881D01*
X1472Y879D01*
X1474Y879D01*
X1474Y877D01*
X1476Y877D01*
X1476Y875D01*
X1478Y875D01*
X1478Y873D01*
X1480Y873D01*
X1480Y871D01*
X1482Y871D01*
X1482Y867D01*
X1484Y867D01*
X1484Y863D01*
X1486Y863D01*
X1486Y857D01*
X1488Y857D01*
X1488Y841D01*
X1486Y841D01*
X1486Y835D01*
X1484Y835D01*
X1484Y831D01*
X1482Y831D01*
X1482Y827D01*
X1480Y827D01*
X1480Y825D01*
X1478Y825D01*
X1478Y823D01*
X1476Y823D01*
X1476Y821D01*
X1474Y821D01*
X1474Y819D01*
X1472Y819D01*
X1472Y817D01*
X1468Y817D01*
X1468Y815D01*
X1464Y815D01*
X1464Y813D01*
X1456Y813D01*
X1456Y811D01*
X1450Y811D01*
X1450Y809D01*
X1448Y809D01*
X1448Y807D01*
X1446Y807D01*
X1446Y805D01*
X1444Y805D01*
X1444Y803D01*
X1442Y803D01*
X1442Y801D01*
X1438Y801D01*
X1438Y799D01*
X1436Y799D01*
X1436Y797D01*
X1434Y797D01*
X1434Y795D01*
X1432Y795D01*
X1432Y793D01*
X1430Y793D01*
X1430Y791D01*
X1428Y791D01*
X1428Y789D01*
X1424Y789D01*
X1424Y787D01*
X1422Y787D01*
X1422Y785D01*
X1420Y785D01*
X1420Y783D01*
X1418Y783D01*
X1418Y781D01*
X1416Y781D01*
X1416Y779D01*
X1414Y779D01*
X1414Y777D01*
X1410Y777D01*
X1410Y775D01*
X1408Y775D01*
X1408Y773D01*
X1406Y773D01*
X1406Y771D01*
X1404Y771D01*
X1404Y769D01*
X1402Y769D01*
X1402Y767D01*
X1398Y767D01*
X1398Y765D01*
X1396Y765D01*
X1396Y763D01*
X1394Y763D01*
X1394Y761D01*
X1392Y761D01*
X1392Y759D01*
X1390Y759D01*
X1390Y757D01*
X1388Y757D01*
X1388Y755D01*
X1384Y755D01*
X1384Y753D01*
X1382Y753D01*
X1382Y751D01*
X1380Y751D01*
X1380Y749D01*
X1378Y749D01*
X1378Y747D01*
X1376Y747D01*
X1376Y745D01*
X1374Y745D01*
X1374Y743D01*
X1370Y743D01*
X1370Y741D01*
X1368Y741D01*
X1368Y739D01*
X1366Y739D01*
X1366Y737D01*
X1364Y737D01*
X1364Y735D01*
X1362Y735D01*
X1362Y733D01*
X1360Y733D01*
X1360Y731D01*
X1356Y731D01*
X1356Y729D01*
X1354Y729D01*
X1354Y727D01*
X1352Y727D01*
X1352Y725D01*
X1350Y725D01*
X1350Y723D01*
X1348Y723D01*
X1348Y721D01*
X1344Y721D01*
X1344Y719D01*
X1342Y719D01*
X1342Y717D01*
X1340Y717D01*
X1340Y715D01*
X1338Y715D01*
X1338Y713D01*
X1336Y713D01*
X1336Y711D01*
X1334Y711D01*
X1334Y709D01*
X1330Y709D01*
X1330Y707D01*
X1328Y707D01*
X1328Y705D01*
X1326Y705D01*
X1326Y703D01*
X1324Y703D01*
X1324Y701D01*
X1322Y701D01*
X1322Y699D01*
X1384Y699D01*
X1384Y697D01*
X1390Y697D01*
X1390Y695D01*
X1394Y695D01*
X1394Y693D01*
X1396Y693D01*
X1396Y691D01*
X1484Y691D01*
X1484Y693D01*
X1520Y693D01*
X1520Y695D01*
X1522Y695D01*
X1522Y697D01*
X1524Y697D01*
X1524Y701D01*
X1526Y701D01*
X1526Y703D01*
X1528Y703D01*
X1528Y723D01*
X1526Y723D01*
X1526Y725D01*
X1524Y725D01*
X1524Y727D01*
X1522Y727D01*
X1522Y729D01*
X1520Y729D01*
X1520Y733D01*
X1518Y733D01*
X1518Y735D01*
X1516Y735D01*
X1516Y739D01*
X1514Y739D01*
X1514Y745D01*
X1512Y745D01*
X1512Y753D01*
X1510Y753D01*
X1510Y771D01*
X1512Y771D01*
X1512Y779D01*
X1514Y779D01*
X1514Y785D01*
X1516Y785D01*
X1516Y789D01*
X1518Y789D01*
X1518Y793D01*
X1520Y793D01*
X1520Y795D01*
X1522Y795D01*
X1522Y797D01*
X1524Y797D01*
X1524Y801D01*
X1526Y801D01*
X1526Y803D01*
X1528Y803D01*
X1528Y823D01*
X1526Y823D01*
X1526Y825D01*
X1524Y825D01*
X1524Y827D01*
X1522Y827D01*
X1522Y829D01*
X1520Y829D01*
X1520Y833D01*
X1518Y833D01*
X1518Y835D01*
X1516Y835D01*
X1516Y839D01*
X1514Y839D01*
X1514Y845D01*
X1512Y845D01*
X1512Y853D01*
X1510Y853D01*
X1510Y879D01*
X1508Y879D01*
X1508Y881D01*
X1506Y881D01*
X1506Y883D01*
X1504Y883D01*
X1504Y885D01*
X1502Y885D01*
X1502Y887D01*
X1500Y887D01*
X1500Y889D01*
X1498Y889D01*
X1498Y891D01*
X1496Y891D01*
X1496Y893D01*
X1494Y893D01*
X1494Y895D01*
X1298Y895D01*
G37*
D02*
G36*
X1290Y887D02*
X1290Y885D01*
X1286Y885D01*
X1286Y883D01*
X1284Y883D01*
X1284Y881D01*
X1282Y881D01*
X1282Y879D01*
X1280Y879D01*
X1280Y877D01*
X1278Y877D01*
X1278Y875D01*
X1276Y875D01*
X1276Y873D01*
X1274Y873D01*
X1274Y871D01*
X1272Y871D01*
X1272Y869D01*
X1270Y869D01*
X1270Y867D01*
X1268Y867D01*
X1268Y865D01*
X1264Y865D01*
X1264Y863D01*
X1262Y863D01*
X1262Y861D01*
X1260Y861D01*
X1260Y859D01*
X1258Y859D01*
X1258Y857D01*
X1256Y857D01*
X1256Y855D01*
X1254Y855D01*
X1254Y853D01*
X1252Y853D01*
X1252Y851D01*
X1250Y851D01*
X1250Y849D01*
X1248Y849D01*
X1248Y847D01*
X1246Y847D01*
X1246Y845D01*
X1242Y845D01*
X1242Y843D01*
X1240Y843D01*
X1240Y841D01*
X1238Y841D01*
X1238Y839D01*
X1236Y839D01*
X1236Y837D01*
X1234Y837D01*
X1234Y835D01*
X1232Y835D01*
X1232Y833D01*
X1230Y833D01*
X1230Y831D01*
X1228Y831D01*
X1228Y829D01*
X1226Y829D01*
X1226Y827D01*
X1224Y827D01*
X1224Y825D01*
X1220Y825D01*
X1220Y823D01*
X1218Y823D01*
X1218Y821D01*
X1216Y821D01*
X1216Y819D01*
X1214Y819D01*
X1214Y817D01*
X1212Y817D01*
X1212Y815D01*
X1210Y815D01*
X1210Y813D01*
X1208Y813D01*
X1208Y811D01*
X1206Y811D01*
X1206Y605D01*
X1204Y605D01*
X1204Y599D01*
X1202Y599D01*
X1202Y595D01*
X1200Y595D01*
X1200Y593D01*
X1198Y593D01*
X1198Y589D01*
X1194Y589D01*
X1194Y587D01*
X1192Y587D01*
X1192Y585D01*
X1188Y585D01*
X1188Y583D01*
X1184Y583D01*
X1184Y581D01*
X848Y581D01*
X848Y579D01*
X844Y579D01*
X844Y577D01*
X842Y577D01*
X842Y575D01*
X840Y575D01*
X840Y573D01*
X838Y573D01*
X838Y571D01*
X836Y571D01*
X836Y569D01*
X834Y569D01*
X834Y567D01*
X832Y567D01*
X832Y565D01*
X828Y565D01*
X828Y563D01*
X826Y563D01*
X826Y561D01*
X824Y561D01*
X824Y559D01*
X822Y559D01*
X822Y557D01*
X820Y557D01*
X820Y555D01*
X818Y555D01*
X818Y553D01*
X816Y553D01*
X816Y551D01*
X812Y551D01*
X812Y549D01*
X810Y549D01*
X810Y547D01*
X808Y547D01*
X808Y545D01*
X806Y545D01*
X806Y543D01*
X804Y543D01*
X804Y541D01*
X802Y541D01*
X802Y539D01*
X800Y539D01*
X800Y537D01*
X796Y537D01*
X796Y535D01*
X794Y535D01*
X794Y533D01*
X792Y533D01*
X792Y531D01*
X790Y531D01*
X790Y529D01*
X788Y529D01*
X788Y527D01*
X786Y527D01*
X786Y525D01*
X784Y525D01*
X784Y523D01*
X780Y523D01*
X780Y521D01*
X778Y521D01*
X778Y519D01*
X776Y519D01*
X776Y517D01*
X774Y517D01*
X774Y515D01*
X772Y515D01*
X772Y513D01*
X770Y513D01*
X770Y511D01*
X768Y511D01*
X768Y509D01*
X764Y509D01*
X764Y507D01*
X762Y507D01*
X762Y505D01*
X760Y505D01*
X760Y503D01*
X758Y503D01*
X758Y501D01*
X756Y501D01*
X756Y499D01*
X754Y499D01*
X754Y497D01*
X752Y497D01*
X752Y495D01*
X748Y495D01*
X748Y493D01*
X746Y493D01*
X746Y491D01*
X744Y491D01*
X744Y489D01*
X742Y489D01*
X742Y487D01*
X740Y487D01*
X740Y485D01*
X738Y485D01*
X738Y483D01*
X736Y483D01*
X736Y481D01*
X732Y481D01*
X732Y479D01*
X730Y479D01*
X730Y477D01*
X728Y477D01*
X728Y475D01*
X726Y475D01*
X726Y473D01*
X724Y473D01*
X724Y453D01*
X722Y453D01*
X722Y445D01*
X720Y445D01*
X720Y439D01*
X718Y439D01*
X718Y435D01*
X716Y435D01*
X716Y433D01*
X714Y433D01*
X714Y429D01*
X712Y429D01*
X712Y427D01*
X710Y427D01*
X710Y425D01*
X708Y425D01*
X708Y401D01*
X710Y401D01*
X710Y399D01*
X712Y399D01*
X712Y395D01*
X714Y395D01*
X714Y393D01*
X716Y393D01*
X716Y389D01*
X718Y389D01*
X718Y385D01*
X720Y385D01*
X720Y381D01*
X722Y381D01*
X722Y371D01*
X724Y371D01*
X724Y353D01*
X722Y353D01*
X722Y345D01*
X720Y345D01*
X720Y339D01*
X718Y339D01*
X718Y335D01*
X716Y335D01*
X716Y333D01*
X714Y333D01*
X714Y329D01*
X712Y329D01*
X712Y327D01*
X710Y327D01*
X710Y325D01*
X708Y325D01*
X708Y321D01*
X704Y321D01*
X704Y319D01*
X702Y319D01*
X702Y317D01*
X700Y317D01*
X700Y315D01*
X696Y315D01*
X696Y313D01*
X694Y313D01*
X694Y311D01*
X690Y311D01*
X690Y309D01*
X684Y309D01*
X684Y307D01*
X674Y307D01*
X674Y305D01*
X1560Y305D01*
X1560Y307D01*
X1550Y307D01*
X1550Y309D01*
X1544Y309D01*
X1544Y311D01*
X1540Y311D01*
X1540Y313D01*
X1538Y313D01*
X1538Y315D01*
X1534Y315D01*
X1534Y317D01*
X1532Y317D01*
X1532Y319D01*
X1530Y319D01*
X1530Y321D01*
X1528Y321D01*
X1528Y323D01*
X1526Y323D01*
X1526Y325D01*
X1524Y325D01*
X1524Y327D01*
X1522Y327D01*
X1522Y329D01*
X1520Y329D01*
X1520Y333D01*
X1518Y333D01*
X1518Y335D01*
X1516Y335D01*
X1516Y339D01*
X1514Y339D01*
X1514Y345D01*
X1512Y345D01*
X1512Y353D01*
X1510Y353D01*
X1510Y371D01*
X1512Y371D01*
X1512Y379D01*
X1514Y379D01*
X1514Y385D01*
X1516Y385D01*
X1516Y389D01*
X1518Y389D01*
X1518Y393D01*
X1520Y393D01*
X1520Y395D01*
X1522Y395D01*
X1522Y397D01*
X1524Y397D01*
X1524Y401D01*
X1526Y401D01*
X1526Y403D01*
X1528Y403D01*
X1528Y423D01*
X1526Y423D01*
X1526Y425D01*
X1524Y425D01*
X1524Y427D01*
X1522Y427D01*
X1522Y429D01*
X1520Y429D01*
X1520Y433D01*
X1518Y433D01*
X1518Y435D01*
X1516Y435D01*
X1516Y439D01*
X1514Y439D01*
X1514Y445D01*
X1512Y445D01*
X1512Y453D01*
X1510Y453D01*
X1510Y471D01*
X1512Y471D01*
X1512Y479D01*
X1514Y479D01*
X1514Y485D01*
X1516Y485D01*
X1516Y489D01*
X1518Y489D01*
X1518Y493D01*
X1520Y493D01*
X1520Y495D01*
X1522Y495D01*
X1522Y497D01*
X1524Y497D01*
X1524Y501D01*
X1526Y501D01*
X1526Y503D01*
X1528Y503D01*
X1528Y523D01*
X1526Y523D01*
X1526Y525D01*
X1524Y525D01*
X1524Y527D01*
X1522Y527D01*
X1522Y529D01*
X1520Y529D01*
X1520Y533D01*
X1264Y533D01*
X1264Y535D01*
X1260Y535D01*
X1260Y537D01*
X1256Y537D01*
X1256Y539D01*
X1254Y539D01*
X1254Y541D01*
X1252Y541D01*
X1252Y543D01*
X1250Y543D01*
X1250Y547D01*
X1248Y547D01*
X1248Y549D01*
X1246Y549D01*
X1246Y557D01*
X1244Y557D01*
X1244Y705D01*
X1246Y705D01*
X1246Y711D01*
X1248Y711D01*
X1248Y715D01*
X1250Y715D01*
X1250Y719D01*
X1252Y719D01*
X1252Y721D01*
X1254Y721D01*
X1254Y723D01*
X1258Y723D01*
X1258Y725D01*
X1260Y725D01*
X1260Y727D01*
X1262Y727D01*
X1262Y729D01*
X1264Y729D01*
X1264Y731D01*
X1266Y731D01*
X1266Y733D01*
X1268Y733D01*
X1268Y735D01*
X1272Y735D01*
X1272Y737D01*
X1274Y737D01*
X1274Y739D01*
X1276Y739D01*
X1276Y741D01*
X1278Y741D01*
X1278Y743D01*
X1280Y743D01*
X1280Y745D01*
X1282Y745D01*
X1282Y747D01*
X1286Y747D01*
X1286Y749D01*
X1288Y749D01*
X1288Y751D01*
X1290Y751D01*
X1290Y753D01*
X1292Y753D01*
X1292Y755D01*
X1294Y755D01*
X1294Y757D01*
X1298Y757D01*
X1298Y759D01*
X1300Y759D01*
X1300Y761D01*
X1302Y761D01*
X1302Y763D01*
X1304Y763D01*
X1304Y765D01*
X1306Y765D01*
X1306Y767D01*
X1308Y767D01*
X1308Y769D01*
X1312Y769D01*
X1312Y771D01*
X1314Y771D01*
X1314Y773D01*
X1316Y773D01*
X1316Y775D01*
X1318Y775D01*
X1318Y777D01*
X1320Y777D01*
X1320Y779D01*
X1322Y779D01*
X1322Y781D01*
X1326Y781D01*
X1326Y783D01*
X1328Y783D01*
X1328Y785D01*
X1330Y785D01*
X1330Y787D01*
X1332Y787D01*
X1332Y789D01*
X1334Y789D01*
X1334Y791D01*
X1336Y791D01*
X1336Y793D01*
X1340Y793D01*
X1340Y795D01*
X1342Y795D01*
X1342Y797D01*
X1344Y797D01*
X1344Y799D01*
X1346Y799D01*
X1346Y801D01*
X1348Y801D01*
X1348Y803D01*
X1352Y803D01*
X1352Y805D01*
X1354Y805D01*
X1354Y807D01*
X1356Y807D01*
X1356Y809D01*
X1358Y809D01*
X1358Y811D01*
X1360Y811D01*
X1360Y813D01*
X1362Y813D01*
X1362Y815D01*
X1366Y815D01*
X1366Y817D01*
X1368Y817D01*
X1368Y819D01*
X1370Y819D01*
X1370Y821D01*
X1372Y821D01*
X1372Y823D01*
X1374Y823D01*
X1374Y825D01*
X1376Y825D01*
X1376Y827D01*
X1380Y827D01*
X1380Y829D01*
X1382Y829D01*
X1382Y831D01*
X1384Y831D01*
X1384Y833D01*
X1386Y833D01*
X1386Y835D01*
X1388Y835D01*
X1388Y837D01*
X1390Y837D01*
X1390Y839D01*
X1394Y839D01*
X1394Y841D01*
X1396Y841D01*
X1396Y843D01*
X1398Y843D01*
X1398Y845D01*
X1400Y845D01*
X1400Y847D01*
X1402Y847D01*
X1402Y849D01*
X1406Y849D01*
X1406Y851D01*
X1408Y851D01*
X1408Y853D01*
X1410Y853D01*
X1410Y855D01*
X1412Y855D01*
X1412Y857D01*
X1414Y857D01*
X1414Y863D01*
X1416Y863D01*
X1416Y867D01*
X1418Y867D01*
X1418Y869D01*
X1420Y869D01*
X1420Y873D01*
X1422Y873D01*
X1422Y875D01*
X1424Y875D01*
X1424Y877D01*
X1426Y877D01*
X1426Y879D01*
X1430Y879D01*
X1430Y881D01*
X1432Y881D01*
X1432Y883D01*
X1436Y883D01*
X1436Y885D01*
X1444Y885D01*
X1444Y887D01*
X1290Y887D01*
G37*
D02*
G36*
X1320Y699D02*
X1320Y697D01*
X1316Y697D01*
X1316Y695D01*
X1314Y695D01*
X1314Y693D01*
X1312Y693D01*
X1312Y691D01*
X1310Y691D01*
X1310Y689D01*
X1308Y689D01*
X1308Y687D01*
X1306Y687D01*
X1306Y685D01*
X1304Y685D01*
X1304Y623D01*
X1374Y623D01*
X1374Y625D01*
X1364Y625D01*
X1364Y627D01*
X1358Y627D01*
X1358Y629D01*
X1354Y629D01*
X1354Y631D01*
X1352Y631D01*
X1352Y633D01*
X1350Y633D01*
X1350Y635D01*
X1348Y635D01*
X1348Y637D01*
X1346Y637D01*
X1346Y639D01*
X1344Y639D01*
X1344Y643D01*
X1342Y643D01*
X1342Y645D01*
X1340Y645D01*
X1340Y651D01*
X1338Y651D01*
X1338Y671D01*
X1340Y671D01*
X1340Y677D01*
X1342Y677D01*
X1342Y681D01*
X1344Y681D01*
X1344Y683D01*
X1346Y683D01*
X1346Y687D01*
X1348Y687D01*
X1348Y689D01*
X1350Y689D01*
X1350Y691D01*
X1354Y691D01*
X1354Y693D01*
X1356Y693D01*
X1356Y695D01*
X1360Y695D01*
X1360Y697D01*
X1366Y697D01*
X1366Y699D01*
X1320Y699D01*
G37*
D02*
G36*
X1486Y633D02*
X1486Y631D01*
X1396Y631D01*
X1396Y629D01*
X1392Y629D01*
X1392Y627D01*
X1388Y627D01*
X1388Y625D01*
X1378Y625D01*
X1378Y623D01*
X1526Y623D01*
X1526Y625D01*
X1524Y625D01*
X1524Y627D01*
X1522Y627D01*
X1522Y629D01*
X1520Y629D01*
X1520Y633D01*
X1486Y633D01*
G37*
D02*
G36*
X1304Y623D02*
X1304Y621D01*
X1528Y621D01*
X1528Y623D01*
X1304Y623D01*
G37*
D02*
G36*
X1304Y623D02*
X1304Y621D01*
X1528Y621D01*
X1528Y623D01*
X1304Y623D01*
G37*
D02*
G36*
X1304Y621D02*
X1304Y593D01*
X1520Y593D01*
X1520Y595D01*
X1522Y595D01*
X1522Y597D01*
X1524Y597D01*
X1524Y601D01*
X1526Y601D01*
X1526Y603D01*
X1528Y603D01*
X1528Y621D01*
X1304Y621D01*
G37*
D02*
G36*
X40Y543D02*
X40Y229D01*
X468Y229D01*
X468Y231D01*
X458Y231D01*
X458Y233D01*
X452Y233D01*
X452Y235D01*
X448Y235D01*
X448Y237D01*
X446Y237D01*
X446Y239D01*
X442Y239D01*
X442Y241D01*
X440Y241D01*
X440Y243D01*
X438Y243D01*
X438Y245D01*
X436Y245D01*
X436Y247D01*
X434Y247D01*
X434Y249D01*
X432Y249D01*
X432Y251D01*
X430Y251D01*
X430Y253D01*
X428Y253D01*
X428Y257D01*
X426Y257D01*
X426Y259D01*
X424Y259D01*
X424Y263D01*
X422Y263D01*
X422Y269D01*
X420Y269D01*
X420Y277D01*
X418Y277D01*
X418Y295D01*
X420Y295D01*
X420Y303D01*
X422Y303D01*
X422Y309D01*
X424Y309D01*
X424Y313D01*
X426Y313D01*
X426Y317D01*
X428Y317D01*
X428Y319D01*
X430Y319D01*
X430Y321D01*
X432Y321D01*
X432Y325D01*
X434Y325D01*
X434Y327D01*
X436Y327D01*
X436Y347D01*
X434Y347D01*
X434Y349D01*
X432Y349D01*
X432Y351D01*
X430Y351D01*
X430Y353D01*
X428Y353D01*
X428Y357D01*
X426Y357D01*
X426Y359D01*
X424Y359D01*
X424Y363D01*
X422Y363D01*
X422Y369D01*
X420Y369D01*
X420Y377D01*
X418Y377D01*
X418Y395D01*
X420Y395D01*
X420Y403D01*
X422Y403D01*
X422Y409D01*
X424Y409D01*
X424Y429D01*
X418Y429D01*
X418Y543D01*
X40Y543D01*
G37*
D02*
G36*
X530Y305D02*
X530Y303D01*
X1692Y303D01*
X1692Y305D01*
X530Y305D01*
G37*
D02*
G36*
X530Y305D02*
X530Y303D01*
X1692Y303D01*
X1692Y305D01*
X530Y305D01*
G37*
D02*
G36*
X530Y305D02*
X530Y303D01*
X1692Y303D01*
X1692Y305D01*
X530Y305D01*
G37*
D02*
G36*
X530Y303D02*
X530Y297D01*
X532Y297D01*
X532Y275D01*
X530Y275D01*
X530Y269D01*
X528Y269D01*
X528Y263D01*
X526Y263D01*
X526Y259D01*
X524Y259D01*
X524Y255D01*
X522Y255D01*
X522Y253D01*
X520Y253D01*
X520Y251D01*
X518Y251D01*
X518Y249D01*
X516Y249D01*
X516Y245D01*
X512Y245D01*
X512Y243D01*
X510Y243D01*
X510Y241D01*
X508Y241D01*
X508Y239D01*
X504Y239D01*
X504Y237D01*
X502Y237D01*
X502Y235D01*
X498Y235D01*
X498Y233D01*
X492Y233D01*
X492Y231D01*
X482Y231D01*
X482Y229D01*
X1692Y229D01*
X1692Y303D01*
X530Y303D01*
G37*
D02*
G36*
X40Y229D02*
X40Y227D01*
X1692Y227D01*
X1692Y229D01*
X40Y229D01*
G37*
D02*
G36*
X40Y229D02*
X40Y227D01*
X1692Y227D01*
X1692Y229D01*
X40Y229D01*
G37*
D02*
G36*
X40Y227D02*
X40Y135D01*
X88Y135D01*
X88Y133D01*
X94Y133D01*
X94Y131D01*
X100Y131D01*
X100Y129D01*
X104Y129D01*
X104Y127D01*
X108Y127D01*
X108Y125D01*
X110Y125D01*
X110Y123D01*
X114Y123D01*
X114Y121D01*
X116Y121D01*
X116Y119D01*
X118Y119D01*
X118Y117D01*
X120Y117D01*
X120Y115D01*
X122Y115D01*
X122Y113D01*
X124Y113D01*
X124Y109D01*
X126Y109D01*
X126Y107D01*
X128Y107D01*
X128Y103D01*
X130Y103D01*
X130Y99D01*
X132Y99D01*
X132Y93D01*
X134Y93D01*
X134Y87D01*
X136Y87D01*
X136Y61D01*
X134Y61D01*
X134Y41D01*
X1604Y41D01*
X1604Y61D01*
X1602Y61D01*
X1602Y87D01*
X1604Y87D01*
X1604Y95D01*
X1606Y95D01*
X1606Y99D01*
X1608Y99D01*
X1608Y103D01*
X1610Y103D01*
X1610Y107D01*
X1612Y107D01*
X1612Y109D01*
X1614Y109D01*
X1614Y113D01*
X1616Y113D01*
X1616Y115D01*
X1618Y115D01*
X1618Y117D01*
X1620Y117D01*
X1620Y119D01*
X1622Y119D01*
X1622Y121D01*
X1624Y121D01*
X1624Y123D01*
X1628Y123D01*
X1628Y125D01*
X1630Y125D01*
X1630Y127D01*
X1634Y127D01*
X1634Y129D01*
X1638Y129D01*
X1638Y131D01*
X1644Y131D01*
X1644Y133D01*
X1650Y133D01*
X1650Y135D01*
X1692Y135D01*
X1692Y227D01*
X40Y227D01*
G37*
D02*
G36*
X40Y135D02*
X40Y133D01*
X64Y133D01*
X64Y135D01*
X40Y135D01*
G37*
D02*
G36*
X722Y1095D02*
X722Y1071D01*
X724Y1071D01*
X724Y1053D01*
X722Y1053D01*
X722Y1045D01*
X720Y1045D01*
X720Y1039D01*
X718Y1039D01*
X718Y1035D01*
X716Y1035D01*
X716Y1033D01*
X714Y1033D01*
X714Y1029D01*
X712Y1029D01*
X712Y1027D01*
X710Y1027D01*
X710Y1025D01*
X708Y1025D01*
X708Y1001D01*
X710Y1001D01*
X710Y999D01*
X712Y999D01*
X712Y995D01*
X714Y995D01*
X714Y993D01*
X716Y993D01*
X716Y989D01*
X718Y989D01*
X718Y985D01*
X720Y985D01*
X720Y981D01*
X722Y981D01*
X722Y971D01*
X724Y971D01*
X724Y969D01*
X876Y969D01*
X876Y971D01*
X868Y971D01*
X868Y973D01*
X864Y973D01*
X864Y975D01*
X860Y975D01*
X860Y977D01*
X856Y977D01*
X856Y979D01*
X854Y979D01*
X854Y981D01*
X852Y981D01*
X852Y983D01*
X850Y983D01*
X850Y985D01*
X848Y985D01*
X848Y987D01*
X846Y987D01*
X846Y989D01*
X844Y989D01*
X844Y991D01*
X842Y991D01*
X842Y995D01*
X840Y995D01*
X840Y997D01*
X838Y997D01*
X838Y1001D01*
X836Y1001D01*
X836Y1007D01*
X834Y1007D01*
X834Y1015D01*
X832Y1015D01*
X832Y1033D01*
X834Y1033D01*
X834Y1041D01*
X836Y1041D01*
X836Y1047D01*
X838Y1047D01*
X838Y1051D01*
X840Y1051D01*
X840Y1053D01*
X842Y1053D01*
X842Y1057D01*
X844Y1057D01*
X844Y1059D01*
X846Y1059D01*
X846Y1061D01*
X848Y1061D01*
X848Y1063D01*
X850Y1063D01*
X850Y1065D01*
X852Y1065D01*
X852Y1067D01*
X854Y1067D01*
X854Y1069D01*
X856Y1069D01*
X856Y1071D01*
X860Y1071D01*
X860Y1073D01*
X864Y1073D01*
X864Y1075D01*
X868Y1075D01*
X868Y1095D01*
X722Y1095D01*
G37*
D02*
G36*
X912Y975D02*
X912Y973D01*
X906Y973D01*
X906Y971D01*
X900Y971D01*
X900Y969D01*
X932Y969D01*
X932Y975D01*
X912Y975D01*
G37*
D02*
G36*
X724Y969D02*
X724Y967D01*
X932Y967D01*
X932Y969D01*
X724Y969D01*
G37*
D02*
G36*
X724Y969D02*
X724Y967D01*
X932Y967D01*
X932Y969D01*
X724Y969D01*
G37*
D02*
G36*
X724Y967D02*
X724Y953D01*
X722Y953D01*
X722Y945D01*
X720Y945D01*
X720Y939D01*
X718Y939D01*
X718Y935D01*
X716Y935D01*
X716Y933D01*
X714Y933D01*
X714Y929D01*
X712Y929D01*
X712Y927D01*
X710Y927D01*
X710Y925D01*
X708Y925D01*
X708Y901D01*
X710Y901D01*
X710Y899D01*
X712Y899D01*
X712Y895D01*
X714Y895D01*
X714Y893D01*
X716Y893D01*
X716Y889D01*
X718Y889D01*
X718Y885D01*
X720Y885D01*
X720Y881D01*
X722Y881D01*
X722Y871D01*
X724Y871D01*
X724Y853D01*
X722Y853D01*
X722Y845D01*
X720Y845D01*
X720Y839D01*
X718Y839D01*
X718Y837D01*
X940Y837D01*
X940Y839D01*
X934Y839D01*
X934Y841D01*
X930Y841D01*
X930Y843D01*
X928Y843D01*
X928Y845D01*
X926Y845D01*
X926Y847D01*
X922Y847D01*
X922Y851D01*
X920Y851D01*
X920Y853D01*
X918Y853D01*
X918Y857D01*
X916Y857D01*
X916Y861D01*
X914Y861D01*
X914Y869D01*
X912Y869D01*
X912Y879D01*
X914Y879D01*
X914Y887D01*
X916Y887D01*
X916Y891D01*
X918Y891D01*
X918Y895D01*
X920Y895D01*
X920Y897D01*
X922Y897D01*
X922Y899D01*
X924Y899D01*
X924Y901D01*
X926Y901D01*
X926Y905D01*
X928Y905D01*
X928Y913D01*
X930Y913D01*
X930Y921D01*
X932Y921D01*
X932Y967D01*
X724Y967D01*
G37*
D02*
G36*
X976Y847D02*
X976Y845D01*
X972Y845D01*
X972Y843D01*
X970Y843D01*
X970Y841D01*
X966Y841D01*
X966Y839D01*
X960Y839D01*
X960Y837D01*
X996Y837D01*
X996Y847D01*
X976Y847D01*
G37*
D02*
G36*
X718Y837D02*
X718Y835D01*
X996Y835D01*
X996Y837D01*
X718Y837D01*
G37*
D02*
G36*
X718Y837D02*
X718Y835D01*
X996Y835D01*
X996Y837D01*
X718Y837D01*
G37*
D02*
G36*
X716Y835D02*
X716Y833D01*
X714Y833D01*
X714Y829D01*
X712Y829D01*
X712Y827D01*
X710Y827D01*
X710Y825D01*
X708Y825D01*
X708Y801D01*
X710Y801D01*
X710Y799D01*
X712Y799D01*
X712Y795D01*
X714Y795D01*
X714Y793D01*
X810Y793D01*
X810Y791D01*
X996Y791D01*
X996Y835D01*
X716Y835D01*
G37*
D02*
G36*
X451Y547D02*
X496Y547D01*
X496Y507D01*
X451Y507D01*
X451Y547D01*
G37*
D02*
G36*
X414Y510D02*
X454Y510D01*
X454Y465D01*
X414Y465D01*
X414Y510D01*
G37*
D02*
G36*
X1584Y486D02*
X1624Y486D01*
X1624Y441D01*
X1584Y441D01*
X1584Y486D01*
G37*
D02*
G36*
X1376Y950D02*
X1408Y950D01*
X1408Y925D01*
X1376Y925D01*
X1376Y950D01*
G37*
D02*
G36*
X1369Y1895D02*
X1410Y1895D01*
X1410Y1855D01*
X1369Y1855D01*
X1369Y1895D01*
G37*
D02*
G36*
X778Y1773D02*
X818Y1773D01*
X818Y1730D01*
X778Y1730D01*
X778Y1773D01*
G37*
D02*
G36*
X1365Y1657D02*
X1406Y1657D01*
X1406Y1617D01*
X1365Y1617D01*
X1365Y1657D01*
G37*
D02*
G36*
X1365Y1587D02*
X1406Y1587D01*
X1406Y1545D01*
X1365Y1545D01*
X1365Y1587D01*
G37*
D02*
G36*
X1330Y1622D02*
X1370Y1622D01*
X1370Y1581D01*
X1330Y1581D01*
X1330Y1622D01*
G37*
D02*
G36*
X1400Y1622D02*
X1442Y1622D01*
X1442Y1581D01*
X1400Y1581D01*
X1400Y1622D01*
G37*
D02*
G36*
X869Y1893D02*
X910Y1893D01*
X910Y1853D01*
X869Y1853D01*
X869Y1893D01*
G37*
D02*
G36*
X796Y1670D02*
X834Y1670D01*
X834Y1633D01*
X796Y1633D01*
X796Y1670D01*
G37*
D02*
G36*
X864Y1670D02*
X900Y1670D01*
X900Y1633D01*
X864Y1633D01*
X864Y1670D01*
G37*
D02*
G36*
X631Y1703D02*
X668Y1703D01*
X668Y1667D01*
X631Y1667D01*
X631Y1703D01*
G37*
D02*
G36*
X596Y1670D02*
X634Y1670D01*
X634Y1633D01*
X596Y1633D01*
X596Y1670D01*
G37*
D02*
G36*
X664Y1670D02*
X700Y1670D01*
X700Y1633D01*
X664Y1633D01*
X664Y1670D01*
G37*
D02*
G04 End of Copper0*
M02*