; NON-PLATED HOLES START AT T1
; THROUGH (PLATED) HOLES START AT T100
M48
INCH
T1C0.086614
T100C0.036111
T101C0.038000
T102C0.015748
T103C0.031496
T104C0.035000
T105C0.031497
T106C0.030556
%
T1
X000751Y000734
X016626Y000734
X016626Y018984
X000751Y018984
T100
X015670Y003618
X006670Y005618
X015670Y005618
X006670Y003618
X006670Y009618
X006670Y004618
X006670Y006618
X015670Y006618
X015670Y010618
X015670Y008618
X015670Y009618
X015670Y007618
X015670Y004618
X006670Y008618
X006670Y010618
X006670Y007618
T101
X002751Y016984
X004751Y003859
X004751Y004859
X004751Y002859
X002751Y015984
X002751Y017984
X002751Y014984
T102
X011501Y009359
X009501Y008734
X013001Y009359
X013751Y006609
X014501Y008484
X012251Y009359
X013707Y009350
X010751Y009359
T103
X015876Y015984
X013876Y015984
X009920Y018368
X010920Y018368
X014920Y018368
X004920Y018368
X012920Y018368
X006170Y018368
X008915Y018359
X013920Y018368
X011920Y018368
X007920Y018368
T104
X006751Y011734
X008376Y017484
X004376Y017484
X002751Y011734
X008876Y014234
X008876Y010234
X010376Y014234
X010376Y010234
T105
X008501Y015500
X006501Y016484
X006501Y015500
X008501Y016484
T106
X006125Y013859
X004126Y013859
X005127Y013858
T00
M30
